<?xml version="1.0" encoding="UTF-8"?>
<svg xmlns="http://www.w3.org/2000/svg" xmlns:xlink="http://www.w3.org/1999/xlink" viewBox="0 0 60 60" width="60px" height="60px">
<g id="surface3990846">
<path style=" stroke:none;fill-rule:nonzero;fill:rgb(99.607843%,33.725491%,9.803922%);fill-opacity:1;" d="M 29.953125 2.398438 C 29.808594 2.394531 29.660156 2.417969 29.523438 2.464844 L 4.40625 11.207031 C 3.871094 11.394531 3.539062 11.925781 3.609375 12.488281 L 7.578125 45.035156 C 7.625 45.421875 7.855469 45.757812 8.195312 45.945312 L 29.371094 57.453125 C 29.730469 57.648438 30.164062 57.648438 30.523438 57.453125 L 51.808594 45.785156 C 52.148438 45.597656 52.375 45.261719 52.421875 44.878906 L 56.390625 12.332031 C 56.460938 11.769531 56.125 11.234375 55.585938 11.050781 L 30.304688 2.464844 C 30.191406 2.425781 30.074219 2.402344 29.953125 2.398438 Z M 29.925781 4.871094 L 53.890625 13.011719 L 50.113281 43.976562 L 29.945312 55.035156 L 9.886719 44.128906 L 6.109375 13.15625 Z M 30.042969 7.199219 C 29.558594 7.183594 29.117188 7.457031 28.914062 7.894531 L 13.3125 41.492188 C 13.140625 41.867188 13.167969 42.300781 13.386719 42.644531 C 13.609375 42.992188 13.988281 43.199219 14.398438 43.199219 L 19.726562 43.199219 C 20.191406 43.199219 20.617188 42.929688 20.8125 42.507812 L 23.828125 36.007812 L 36.171875 36.007812 L 39.1875 42.507812 C 39.382812 42.929688 39.808594 43.199219 40.273438 43.199219 L 45.601562 43.199219 C 46.011719 43.199219 46.390625 42.992188 46.613281 42.644531 C 46.832031 42.300781 46.859375 41.867188 46.6875 41.492188 L 31.085938 7.894531 C 30.898438 7.484375 30.492188 7.214844 30.042969 7.199219 Z M 30 11.246094 L 43.71875 40.800781 L 41.042969 40.800781 L 38.023438 34.304688 C 37.828125 33.878906 37.402344 33.609375 36.9375 33.609375 L 23.0625 33.609375 C 22.597656 33.609375 22.171875 33.878906 21.976562 34.304688 L 18.957031 40.800781 L 16.28125 40.800781 Z M 30.046875 18.601562 C 29.5625 18.582031 29.113281 18.855469 28.910156 19.296875 L 24.199219 29.511719 C 24.027344 29.882812 24.058594 30.316406 24.277344 30.660156 C 24.5 31.003906 24.878906 31.214844 25.289062 31.214844 L 34.710938 31.214844 C 35.121094 31.214844 35.5 31.003906 35.722656 30.660156 C 35.941406 30.316406 35.972656 29.882812 35.800781 29.511719 L 31.089844 19.296875 C 30.902344 18.886719 30.5 18.617188 30.046875 18.601562 Z M 30 22.664062 L 32.835938 28.8125 L 27.164062 28.8125 Z M 30 22.664062 "/>
</g>
</svg>
