<?xml version="1.0" encoding="UTF-8"?>
<svg xmlns="http://www.w3.org/2000/svg" xmlns:xlink="http://www.w3.org/1999/xlink" viewBox="0 0 60 60" width="60px" height="60px">
<g id="surface4064058">
<path style=" stroke:none;fill-rule:nonzero;fill:rgb(99.607843%,33.725491%,9.803922%);fill-opacity:1;" d="M 7.253906 19.1875 L 7.253906 24.265625 C 6.765625 24.140625 6.175781 24.097656 5.644531 24.097656 C 2.214844 24.097656 0 26.246094 0 29.5625 C 0 33.003906 2.085938 34.792969 6.097656 34.796875 C 7.433594 34.796875 8.675781 34.675781 10.355469 34.355469 L 10.355469 19.1875 Z M 12.296875 19.203125 L 12.296875 22.539062 L 15.578125 22.539062 L 15.578125 19.203125 Z M 12.296875 24 L 12.296875 30.738281 C 12.296875 33.566406 12.148438 34.644531 11.679688 35.574219 C 11.230469 36.480469 10.527344 37.074219 9.078125 37.75 L 12.125 39.183594 C 13.574219 38.464844 14.277344 37.8125 14.808594 36.777344 C 15.378906 35.703125 15.574219 34.457031 15.574219 31.859375 L 15.574219 24 Z M 54.679688 24 C 51.308594 24 49.207031 26.113281 49.199219 29.503906 C 49.199219 32.773438 51.238281 34.800781 54.546875 34.800781 C 57.898438 34.800781 60 32.6875 60 29.316406 C 60 26.03125 57.984375 24 54.679688 24 Z M 21.699219 24.097656 C 20.25 24.097656 18.917969 24.394531 17.527344 25.0625 L 17.535156 27.570312 C 18.761719 26.917969 20.070312 26.582031 21.234375 26.582031 C 22.027344 26.582031 22.316406 26.792969 22.316406 27.382812 L 22.316406 28.09375 C 18.453125 28.429688 16.878906 29.480469 16.878906 31.753906 C 16.878906 33.855469 18.066406 34.800781 20.703125 34.800781 C 22.011719 34.800781 23.789062 34.648438 25.199219 34.441406 L 25.199219 27.863281 C 25.199219 26.515625 25.113281 25.886719 24.851562 25.402344 C 24.378906 24.539062 23.320312 24.097656 21.699219 24.097656 Z M 32.300781 24.097656 C 30.683594 24.097656 29.085938 24.324219 27.148438 24.832031 L 27.148438 34.667969 L 30.425781 34.667969 L 30.425781 26.945312 C 31.085938 26.75 31.488281 26.710938 31.9375 26.710938 C 33.109375 26.710938 33.65625 27.175781 33.65625 28.421875 L 33.65625 34.667969 L 36.820312 34.667969 L 36.820312 28.292969 C 36.820312 26.671875 36.601562 25.910156 35.921875 25.214844 C 35.199219 24.476562 33.984375 24.097656 32.300781 24.097656 Z M 45.34375 24.113281 C 40.550781 24.113281 37.84375 26.199219 37.84375 29.898438 C 37.84375 32.871094 39.671875 34.753906 42.546875 34.753906 C 43.398438 34.753906 44.039062 34.625 44.679688 34.308594 L 44.679688 34.371094 C 44.679688 36.4375 43.761719 37.304688 41.609375 37.304688 C 40.394531 37.304688 39.242188 37.035156 38.09375 36.441406 L 38.09375 39.445312 C 39.242188 39.890625 40.347656 40.078125 41.628906 40.078125 C 44.144531 40.078125 45.914062 39.292969 46.9375 37.714844 C 47.640625 36.632812 47.875 35.324219 47.875 32.539062 L 47.875 31.652344 C 47.855469 31.207031 47.855469 30.765625 47.832031 30.320312 L 47.8125 28.546875 L 47.769531 27.171875 L 47.769531 26.832031 C 48.429688 26.894531 47.628906 26.753906 48.5 26.921875 L 49.625 24.578125 C 48.050781 24.261719 46.75 24.113281 45.34375 24.113281 Z M 54.632812 26.589844 C 55.898438 26.589844 56.628906 27.636719 56.628906 29.394531 C 56.628906 31.175781 55.878906 32.203125 54.613281 32.203125 C 53.328125 32.203125 52.570312 31.175781 52.570312 29.394531 C 52.570312 27.613281 53.320312 26.589844 54.632812 26.589844 Z M 5.964844 26.710938 C 6.371094 26.710938 6.867188 26.753906 7.25 26.878906 L 7.25 32.097656 C 6.78125 32.160156 6.308594 32.183594 5.945312 32.183594 C 4.261719 32.183594 3.34375 31.226562 3.34375 29.5 C 3.34375 27.722656 4.304688 26.710938 5.964844 26.710938 Z M 44.273438 26.734375 L 44.617188 26.734375 L 44.617188 26.984375 L 44.636719 28.058594 L 44.65625 29.558594 C 44.65625 30.003906 44.679688 30.425781 44.679688 30.804688 L 44.679688 31.929688 C 44.257812 32.054688 43.894531 32.136719 43.445312 32.136719 C 41.996094 32.136719 41.183594 31.207031 41.183594 29.582031 C 41.183594 28.445312 41.589844 27.640625 42.375 27.195312 C 42.886719 26.878906 43.636719 26.710938 44.273438 26.734375 Z M 22.460938 30.214844 L 22.460938 32.382812 C 21.847656 32.484375 21.417969 32.527344 20.945312 32.527344 C 20.085938 32.527344 19.695312 32.234375 19.695312 31.601562 C 19.695312 30.761719 20.375 30.421875 22.460938 30.214844 Z M 22.460938 30.214844 "/>
</g>
</svg>
