<?xml version="1.0" encoding="utf-8"?>
<!-- Generator: Adobe Illustrator 25.4.1, SVG Export Plug-In . SVG Version: 6.00 Build 0)  -->
<svg version="1.1" id="Layer_1" xmlns="http://www.w3.org/2000/svg" xmlns:xlink="http://www.w3.org/1999/xlink" x="0px" y="0px"
	 viewBox="0 0 400.63 150.94" style="enable-background:new 0 0 400.63 150.94;" xml:space="preserve">
<style type="text/css">
	.st0{fill:#F29822;}
	.st1{fill:#FAAB39;}
	.st2{fill:#A5CD3A;}
	.st3{fill:#ED7723;}
	.st4{fill:#852C86;}
	.st5{fill:#C42A6D;}
	.st6{fill:#3D3B80;}
	.st7{fill:#EB2C7D;}
	.st8{fill:#5F367A;}
	.st9{fill:#71BE45;}
	.st10{fill:#D82569;}
	.st11{fill:#5D8B97;}
	.st12{fill:#433D66;}
	.st13{fill:#70BCE2;}
	.st14{fill:#94C43E;}
	.st15{fill:#1DA24A;}
	.st16{fill:#B6CE38;}
	.st17{fill:#82BBC3;}
	.st18{fill:#46A0CC;}
	.st19{fill:#4C589E;}
	.st20{fill:#2789AF;}
	.st21{fill:#060808;}
	.st22{fill:#231F20;}
	.st23{fill:#FFFFFF;}
</style>
<g>
	<path class="st0" d="M113.16-146.44l-13.38,22.98c-0.33,0.57,0.08,1.28,0.74,1.28h26.75c0.66,0,1.07-0.71,0.74-1.28l-13.38-22.98
		C114.3-147.01,113.49-147.01,113.16-146.44z"/>
	<path class="st1" d="M130.13-122.54l13.49-23.17c0.31-0.53-0.07-1.18-0.68-1.18h-26.97c-0.61,0-0.99,0.66-0.68,1.18l13.49,23.17
		C129.08-122.02,129.83-122.02,130.13-122.54z"/>
	<path class="st2" d="M82.11-146.57l-13.59,23.35c-0.29,0.49,0.07,1.11,0.64,1.11h27.18c0.57,0,0.92-0.62,0.64-1.11l-13.59-23.35
		C83.1-147.06,82.4-147.06,82.11-146.57z"/>
	<path class="st3" d="M99.02-122.54l13.49-23.17c0.31-0.53-0.07-1.18-0.68-1.18H84.86c-0.61,0-0.99,0.66-0.68,1.18l13.49,23.17
		C97.97-122.02,98.72-122.02,99.02-122.54z"/>
	<path class="st4" d="M99.74-68.06L86.4-45.15c-0.34,0.58,0.08,1.32,0.76,1.32h26.67c0.68,0,1.1-0.73,0.76-1.32l-13.33-22.91
		C100.91-68.64,100.07-68.64,99.74-68.06z"/>
	<path class="st5" d="M117.27-44.17l13.51-23.21c0.3-0.52-0.07-1.17-0.67-1.17h-27.01c-0.6,0-0.97,0.65-0.67,1.17l13.51,23.21
		C116.22-43.66,116.97-43.66,117.27-44.17z"/>
	<path class="st6" d="M68-68.07L54.65-45.14c-0.34,0.58,0.08,1.32,0.76,1.32h26.7c0.68,0,1.1-0.73,0.76-1.32L69.52-68.07
		C69.18-68.65,68.34-68.65,68-68.07z"/>
	<path class="st7" d="M131.69-68.19l-13.56,23.3c-0.29,0.5,0.07,1.14,0.65,1.14h27.12c0.58,0,0.95-0.63,0.65-1.14l-13.56-23.3
		C132.7-68.69,131.98-68.69,131.69-68.19z"/>
	<path class="st8" d="M85.27-44.29l13.3-22.85c0.35-0.6-0.08-1.35-0.78-1.35H71.2c-0.69,0-1.12,0.75-0.78,1.35l13.3,22.85
		C84.06-43.7,84.92-43.7,85.27-44.29z"/>
	<path class="st9" d="M50.83-146.51l-13.48,23.17c-0.31,0.53,0.07,1.2,0.69,1.2H65c0.62,0,1-0.67,0.69-1.2l-13.48-23.17
		C51.9-147.04,51.13-147.04,50.83-146.51z"/>
	<path class="st10" d="M-11.61-122.28l-3.62,6.22c-1.03,1.76,0.25,3.97,2.29,3.97h7.25c2.04,0,3.31-2.21,2.29-3.97l-3.62-6.22
		C-8.06-124.03-10.59-124.03-11.61-122.28z"/>
	<path class="st11" d="M8.96-137.38l-0.72,1.24c-1.03,1.76,0.25,3.97,2.29,3.97h1.44c2.04,0,3.31-2.21,2.29-3.97l-0.72-1.24
		C12.51-139.13,9.98-139.13,8.96-137.38z"/>
	<path class="st12" d="M1.13-96.48l-0.72,1.24c-1.03,1.76,0.25,3.97,2.29,3.97h1.44c2.04,0,3.31-2.21,2.29-3.97L5.7-96.48
		C4.68-98.23,2.15-98.23,1.13-96.48z"/>
	<path class="st13" d="M29.47-120.09L15.98-96.91c-0.31,0.53,0.07,1.19,0.69,1.19h26.99c0.61,0,0.99-0.66,0.69-1.19l-13.49-23.18
		C30.54-120.62,29.78-120.62,29.47-120.09z"/>
	<path class="st14" d="M67.78-122.53l13.49-23.18c0.31-0.53-0.07-1.2-0.69-1.2H53.6c-0.61,0-1,0.67-0.69,1.2l13.49,23.18
		C66.71-122.01,67.48-122.01,67.78-122.53z"/>
	<path class="st15" d="M52.27-96.17l13.39-23.01c0.33-0.57-0.08-1.28-0.74-1.28H38.14c-0.66,0-1.07,0.71-0.74,1.28L50.8-96.17
		C51.13-95.6,51.94-95.6,52.27-96.17z"/>
	<path class="st16" d="M28.61-144.46l5.11-8.78c1.03-1.76-0.25-3.97-2.29-3.97H21.21c-2.04,0-3.31,2.21-2.29,3.97l5.11,8.78
		C25.06-142.71,27.59-142.71,28.61-144.46z"/>
	<path class="st17" d="M17.67-109.35l6.34-10.89c1.03-1.76-0.25-3.97-2.29-3.97H9.04c-2.04,0-3.31,2.21-2.29,3.97l6.34,10.89
		C14.12-107.6,16.65-107.6,17.67-109.35z"/>
	<path class="st18" d="M38.57-70.78l13.47-23.14c0.31-0.54-0.08-1.21-0.7-1.21H24.4c-0.62,0-1.01,0.68-0.7,1.21l13.47,23.14
		C37.48-70.24,38.25-70.24,38.57-70.78z"/>
	<path class="st19" d="M53.77-44.2l13.45-23.11c0.32-0.55-0.08-1.23-0.71-1.23h-26.9c-0.63,0-1.03,0.68-0.71,1.23L52.36-44.2
		C52.67-43.65,53.46-43.65,53.77-44.2z"/>
	<path class="st20" d="M52.38-93.78L38.89-70.61c-0.31,0.53,0.07,1.2,0.69,1.2h26.97c0.61,0,1-0.67,0.69-1.2L53.76-93.78
		C53.45-94.31,52.68-94.31,52.38-93.78z"/>
	<g>
		<path class="st21" d="M118.25-77.79c0.27,0.47,0.33,0.95,0.2,1.45c-0.13,0.5-0.43,0.88-0.9,1.15c-0.28,0.17-0.6,0.25-0.95,0.25
			c-0.77,0-1.33-0.32-1.68-0.95l-8.79-15.27H80.35v14.32c0,0.52-0.19,0.96-0.56,1.34c-0.38,0.38-0.83,0.56-1.36,0.56
			c-0.53,0-0.99-0.18-1.35-0.55c-0.37-0.37-0.55-0.82-0.55-1.35v-32.17c0-0.02,0-0.03,0.01-0.05c0.01-0.02,0.01-0.03,0.01-0.05
			c0-0.02,0-0.03-0.01-0.05c-0.01-0.02-0.01-0.03-0.01-0.05c0-0.75,0.37-1.25,1.1-1.5c0.12-0.05,0.33-0.08,0.64-0.1
			c0.31-0.02,0.5-0.02,0.59,0h28.84c2.7,0,5.01,0.95,6.91,2.85c1.9,1.9,2.85,4.21,2.85,6.91c0,2.22-0.67,4.21-2.02,5.97
			c-1.34,1.76-3.05,2.93-5.12,3.52L118.25-77.79z M80.35-94.51h26.76c1.8,0,3.34-0.64,4.62-1.92c1.28-1.28,1.92-2.82,1.92-4.62
			c0-1.8-0.64-3.34-1.92-4.62c-1.28-1.28-2.82-1.92-4.62-1.92H80.35V-94.51z"/>
		<path class="st21" d="M124.69-107.58c-0.45,0-0.84-0.16-1.15-0.48c-0.32-0.32-0.48-0.7-0.48-1.15s0.16-0.83,0.48-1.15
			c0.32-0.32,0.7-0.48,1.15-0.48h41.26c0.45,0,0.83,0.16,1.15,0.48c0.32,0.32,0.48,0.7,0.48,1.15s-0.16,0.83-0.48,1.15
			c-0.32,0.32-0.7,0.48-1.15,0.48H124.69z M165.94-94.51c0.45,0,0.83,0.16,1.15,0.48c0.32,0.32,0.48,0.7,0.48,1.15
			s-0.16,0.83-0.48,1.15c-0.32,0.32-0.7,0.48-1.15,0.48h-41.26c-0.45,0-0.84-0.16-1.15-0.48c-0.32-0.32-0.48-0.7-0.48-1.15
			s0.16-0.83,0.48-1.15c0.32-0.32,0.7-0.48,1.15-0.48H165.94z M165.94-78.19c0.45,0,0.83,0.16,1.15,0.48
			c0.32,0.32,0.48,0.7,0.48,1.15s-0.16,0.83-0.48,1.15c-0.32,0.32-0.7,0.48-1.15,0.48h-41.26c-0.45,0-0.84-0.16-1.15-0.48
			c-0.32-0.32-0.48-0.7-0.48-1.15s0.16-0.83,0.48-1.15c0.32-0.32,0.7-0.48,1.15-0.48H165.94z"/>
		<path class="st21" d="M219.64-77.99c0.3,0.43,0.4,0.91,0.31,1.41c-0.09,0.51-0.35,0.91-0.79,1.21c-0.33,0.23-0.69,0.35-1.08,0.35
			c-0.65,0-1.18-0.28-1.58-0.83l-7.06-10.21h-15.77c-0.52,0-0.96-0.19-1.34-0.56c-0.38-0.38-0.56-0.83-0.56-1.36
			c0-0.52,0.18-0.96,0.55-1.34c0.37-0.38,0.82-0.56,1.35-0.56h13.12l-10.77-15.57l-20.45,29.62c-0.4,0.55-0.93,0.83-1.58,0.83
			c-0.38,0-0.74-0.12-1.08-0.35c-0.43-0.3-0.7-0.71-0.79-1.23c-0.09-0.52,0.01-0.99,0.31-1.43l22.03-31.9
			c0.03-0.03,0.08-0.08,0.14-0.13c0.06-0.05,0.1-0.08,0.11-0.1c0.02-0.02,0.05-0.05,0.1-0.11c0.05-0.06,0.09-0.1,0.13-0.14
			l0.02-0.03c0.08-0.05,0.23-0.11,0.43-0.18c0.03,0,0.08-0.02,0.14-0.05c0.06-0.03,0.1-0.05,0.14-0.05h0.4h0.33
			c0.03,0,0.08,0.02,0.15,0.05c0.07,0.03,0.12,0.06,0.15,0.08c0.02,0,0.08,0.02,0.18,0.05c0.1,0.03,0.18,0.07,0.23,0.1l0.03,0.03
			c0.03,0.02,0.06,0.04,0.09,0.08c0.02,0.03,0.05,0.07,0.09,0.1c0.03,0.03,0.06,0.06,0.08,0.08l0.23,0.23L219.64-77.99z"/>
		<path class="st21" d="M254.72-110.83c0.45,0,0.83,0.16,1.15,0.48c0.32,0.32,0.48,0.7,0.48,1.15s-0.16,0.83-0.48,1.15
			c-0.32,0.32-0.7,0.48-1.15,0.48h-18.73v30.74c0,0.53-0.19,0.98-0.56,1.35c-0.38,0.37-0.82,0.55-1.34,0.55
			c-0.52,0-0.96-0.18-1.34-0.55c-0.38-0.37-0.56-0.82-0.56-1.35v-30.74h-18.73c-0.45,0-0.84-0.16-1.15-0.48
			c-0.32-0.32-0.48-0.7-0.48-1.15s0.16-0.83,0.48-1.15c0.32-0.32,0.7-0.48,1.15-0.48h20.63H254.72z"/>
		<path class="st21" d="M269.87-78.19c0.45,0,0.83,0.16,1.15,0.48c0.32,0.32,0.48,0.7,0.48,1.15s-0.16,0.83-0.48,1.15
			c-0.32,0.32-0.7,0.48-1.15,0.48h-7.36c-0.45,0-0.84-0.16-1.15-0.48c-0.32-0.32-0.48-0.7-0.48-1.15s0.16-0.83,0.48-1.15
			c0.32-0.32,0.7-0.48,1.15-0.48h1.78v-29.39h-1.78c-0.45,0-0.84-0.16-1.15-0.48c-0.32-0.32-0.48-0.7-0.48-1.15s0.16-0.83,0.48-1.15
			c0.32-0.32,0.7-0.48,1.15-0.48h7.36c0.45,0,0.83,0.16,1.15,0.48c0.32,0.32,0.48,0.7,0.48,1.15s-0.16,0.83-0.48,1.15
			c-0.32,0.32-0.7,0.48-1.15,0.48h-1.78v29.39H269.87z"/>
		<path class="st21" d="M321.69-110.7c0.52-0.09,0.99,0.01,1.43,0.31c0.43,0.3,0.7,0.71,0.79,1.23c0.09,0.52-0.01,0.99-0.31,1.43
			l-22.03,31.9c-0.02,0.02-0.04,0.03-0.06,0.05c-0.02,0.02-0.04,0.03-0.04,0.05c-0.17,0.22-0.29,0.35-0.38,0.4l-0.15,0.08
			c-0.02,0.02-0.05,0.03-0.09,0.05c-0.04,0.02-0.07,0.03-0.09,0.03c-0.28,0.12-0.53,0.18-0.75,0.18c-0.22,0-0.48-0.06-0.78-0.18
			c-0.02,0-0.05-0.01-0.09-0.03c-0.04-0.02-0.07-0.03-0.09-0.05l-0.15-0.08c-0.08-0.05-0.21-0.18-0.38-0.4
			c0-0.02-0.02-0.03-0.05-0.05c-0.03-0.02-0.05-0.03-0.05-0.05l-22.03-31.9c-0.3-0.43-0.41-0.91-0.31-1.43
			c0.09-0.52,0.35-0.93,0.79-1.23c0.43-0.3,0.91-0.4,1.43-0.31c0.52,0.09,0.93,0.35,1.23,0.79l20.48,29.64l20.45-29.64
			C320.76-110.34,321.17-110.6,321.69-110.7z"/>
		<path class="st21" d="M330.18-107.58c-0.45,0-0.84-0.16-1.15-0.48c-0.32-0.32-0.48-0.7-0.48-1.15s0.16-0.83,0.48-1.15
			c0.32-0.32,0.7-0.48,1.15-0.48h41.26c0.45,0,0.83,0.16,1.15,0.48c0.32,0.32,0.48,0.7,0.48,1.15s-0.16,0.83-0.48,1.15
			c-0.32,0.32-0.7,0.48-1.15,0.48H330.18z M371.43-94.51c0.45,0,0.83,0.16,1.15,0.48c0.32,0.32,0.48,0.7,0.48,1.15
			s-0.16,0.83-0.48,1.15c-0.32,0.32-0.7,0.48-1.15,0.48h-41.26c-0.45,0-0.84-0.16-1.15-0.48c-0.32-0.32-0.48-0.7-0.48-1.15
			s0.16-0.83,0.48-1.15c0.32-0.32,0.7-0.48,1.15-0.48H371.43z M371.43-78.19c0.45,0,0.83,0.16,1.15,0.48
			c0.32,0.32,0.48,0.7,0.48,1.15s-0.16,0.83-0.48,1.15c-0.32,0.32-0.7,0.48-1.15,0.48h-41.26c-0.45,0-0.84-0.16-1.15-0.48
			c-0.32-0.32-0.48-0.7-0.48-1.15s0.16-0.83,0.48-1.15c0.32-0.32,0.7-0.48,1.15-0.48H371.43z"/>
	</g>
	<g>
		<g>
			<path class="st22" d="M181.31-42.14c-0.45,0-0.84-0.16-1.15-0.48c-0.32-0.32-0.48-0.71-0.48-1.16v-18.64h-6.06
				c-0.45,0-0.84-0.16-1.16-0.48c-0.32-0.32-0.48-0.71-0.48-1.16s0.16-0.84,0.48-1.16c0.32-0.32,0.71-0.48,1.16-0.48h15.39
				c0.45,0,0.84,0.16,1.16,0.48s0.48,0.71,0.48,1.16s-0.16,0.84-0.48,1.16s-0.71,0.48-1.16,0.48h-6.06v18.64
				c0,0.45-0.16,0.84-0.48,1.16C182.16-42.3,181.77-42.14,181.31-42.14z"/>
			<path class="st22" d="M196.37-42.14h-10.33c-0.45,0-0.84-0.16-1.16-0.48c-0.32-0.32-0.48-0.71-0.48-1.16v-20.28
				c0-0.45,0.16-0.84,0.48-1.16c0.32-0.32,0.71-0.48,1.16-0.48h10.33c0.46,0,0.85,0.16,1.16,0.48c0.32,0.32,0.48,0.71,0.48,1.16
				s-0.16,0.84-0.48,1.16c-0.32,0.32-0.71,0.48-1.16,0.48h-8.69v8.97h5.25c0.45,0,0.84,0.16,1.16,0.48
				c0.32,0.32,0.48,0.71,0.48,1.16c0,0.45-0.16,0.84-0.48,1.16s-0.71,0.48-1.16,0.48h-5.25v4.75h8.69c0.46,0,0.85,0.16,1.16,0.48
				c0.32,0.32,0.48,0.71,0.48,1.16c0,0.45-0.16,0.84-0.48,1.16C197.22-42.3,196.83-42.14,196.37-42.14z"/>
			<path class="st22" d="M206.62-41.64c-1.43,0-2.73-0.35-3.91-1.05s-2.11-1.63-2.81-2.8c-0.7-1.17-1.05-2.46-1.05-3.88v-9.25
				c0-1.42,0.35-2.72,1.05-3.89c0.7-1.17,1.64-2.1,2.81-2.79s2.48-1.04,3.91-1.04c1.44,0,2.74,0.35,3.92,1.04s2.11,1.62,2.81,2.79
				c0.7,1.17,1.05,2.46,1.05,3.89c0,0.45-0.16,0.84-0.48,1.16s-0.71,0.48-1.16,0.48s-0.84-0.16-1.16-0.48s-0.48-0.71-0.48-1.16
				c0-0.81-0.2-1.56-0.61-2.23c-0.41-0.67-0.95-1.21-1.63-1.61c-0.68-0.4-1.43-0.6-2.26-0.6c-0.82,0-1.57,0.2-2.26,0.6
				c-0.68,0.4-1.23,0.94-1.63,1.61c-0.4,0.67-0.61,1.42-0.61,2.23v9.25c0,0.81,0.2,1.56,0.61,2.23c0.4,0.67,0.95,1.21,1.63,1.61
				c0.68,0.4,1.44,0.6,2.26,0.6c0.83,0,1.58-0.2,2.26-0.6c0.68-0.4,1.22-0.94,1.63-1.61c0.41-0.67,0.61-1.42,0.61-2.23
				c0-0.46,0.16-0.85,0.48-1.16c0.32-0.32,0.71-0.48,1.16-0.48s0.84,0.16,1.16,0.48c0.32,0.32,0.48,0.71,0.48,1.16
				c0,1.42-0.35,2.71-1.05,3.88c-0.7,1.17-1.64,2.1-2.81,2.8S208.05-41.64,206.62-41.64z"/>
			<path class="st22" d="M228.05-42.14c-0.45,0-0.84-0.16-1.16-0.48c-0.32-0.32-0.48-0.71-0.48-1.16v-6.39h-7.73v6.39
				c0,0.45-0.16,0.84-0.48,1.16c-0.32,0.32-0.71,0.48-1.16,0.48c-0.45,0-0.84-0.16-1.16-0.48c-0.32-0.32-0.48-0.71-0.48-1.16v-20.28
				c0-0.45,0.16-0.84,0.48-1.16c0.32-0.32,0.71-0.48,1.16-0.48c0.46,0,0.85,0.16,1.16,0.48c0.32,0.32,0.48,0.71,0.48,1.16v10.61
				h7.73v-10.61c0-0.45,0.16-0.84,0.48-1.16c0.32-0.32,0.71-0.48,1.16-0.48c0.46,0,0.85,0.16,1.16,0.48s0.48,0.71,0.48,1.16v20.28
				c0,0.45-0.16,0.84-0.48,1.16S228.5-42.14,228.05-42.14z"/>
			<path class="st22" d="M245.71-41.64c-1.43,0-2.73-0.35-3.91-1.05s-2.11-1.63-2.81-2.8c-0.7-1.17-1.05-2.46-1.05-3.88
				c0-0.46,0.16-0.85,0.48-1.16c0.32-0.32,0.71-0.48,1.16-0.48s0.84,0.16,1.16,0.48c0.32,0.32,0.48,0.71,0.48,1.16
				c0,0.81,0.2,1.56,0.61,2.23c0.41,0.67,0.95,1.21,1.63,1.61c0.68,0.4,1.43,0.6,2.25,0.6c0.83,0,1.58-0.2,2.26-0.6
				c0.68-0.4,1.22-0.94,1.63-1.61c0.41-0.67,0.61-1.42,0.61-2.23c0-0.66-0.19-1.2-0.58-1.61c-0.39-0.41-0.98-0.77-1.78-1.08
				c-0.8-0.31-1.81-0.62-3.04-0.93c-0.76-0.2-1.51-0.41-2.25-0.65c-1.85-0.59-3.13-1.4-3.86-2.45c-0.51-0.74-0.77-1.58-0.77-2.52
				c0-1.42,0.35-2.72,1.05-3.89c0.7-1.17,1.64-2.1,2.81-2.79s2.48-1.04,3.91-1.04c1.44,0,2.74,0.35,3.92,1.04s2.12,1.62,2.81,2.79
				c0.7,1.17,1.05,2.46,1.05,3.89c0,0.45-0.16,0.84-0.48,1.16c-0.32,0.32-0.71,0.48-1.16,0.48s-0.84-0.16-1.16-0.48
				c-0.32-0.32-0.48-0.71-0.48-1.16c0-0.81-0.2-1.56-0.61-2.23c-0.41-0.67-0.95-1.21-1.63-1.61c-0.68-0.4-1.43-0.6-2.26-0.6
				c-0.82,0-1.57,0.2-2.25,0.6c-0.68,0.4-1.22,0.94-1.63,1.61c-0.41,0.67-0.61,1.42-0.61,2.23c0,0.55,0.35,0.99,1.05,1.33
				c0.7,0.34,1.83,0.71,3.39,1.11c0.86,0.22,1.72,0.47,2.56,0.75c3.51,1.15,5.27,3.17,5.27,6.06c0,1.42-0.35,2.71-1.05,3.88
				c-0.7,1.17-1.64,2.1-2.81,2.8S247.15-41.64,245.71-41.64z"/>
			<path class="st22" d="M262.29-41.64c-1.44,0-2.74-0.35-3.92-1.05s-2.11-1.63-2.81-2.8c-0.7-1.17-1.05-2.46-1.05-3.88v-9.25
				c0-1.42,0.35-2.72,1.05-3.89c0.7-1.17,1.64-2.1,2.81-2.79s2.48-1.04,3.92-1.04c1.43,0,2.73,0.35,3.91,1.04s2.12,1.62,2.81,2.79
				c0.7,1.17,1.05,2.46,1.05,3.89v9.25c0,1.42-0.35,2.71-1.05,3.88c-0.7,1.17-1.64,2.1-2.81,2.8S263.72-41.64,262.29-41.64z
				 M262.29-44.93c0.82,0,1.57-0.2,2.26-0.6c0.68-0.4,1.23-0.94,1.63-1.61c0.4-0.67,0.6-1.42,0.6-2.23v-9.25
				c0-0.81-0.2-1.56-0.6-2.23c-0.4-0.67-0.95-1.21-1.63-1.61c-0.68-0.4-1.44-0.6-2.26-0.6c-0.83,0-1.58,0.2-2.26,0.6
				c-0.68,0.4-1.22,0.94-1.63,1.61c-0.41,0.67-0.61,1.42-0.61,2.23v9.25c0,0.81,0.2,1.56,0.61,2.23c0.41,0.67,0.95,1.21,1.63,1.61
				C260.71-45.13,261.47-44.93,262.29-44.93z"/>
			<path class="st22" d="M283.05-42.14h-10.33c-0.45,0-0.84-0.16-1.16-0.48c-0.32-0.32-0.48-0.71-0.48-1.16v-20.28
				c0-0.45,0.16-0.84,0.48-1.16c0.32-0.32,0.71-0.48,1.16-0.48s0.84,0.16,1.16,0.48c0.32,0.32,0.48,0.71,0.48,1.16v18.64h8.69
				c0.45,0,0.84,0.16,1.16,0.48c0.32,0.32,0.48,0.71,0.48,1.16c0,0.45-0.16,0.84-0.48,1.16C283.89-42.3,283.5-42.14,283.05-42.14z"
				/>
			<path class="st22" d="M293.17-41.64c-1.43,0-2.73-0.35-3.91-1.05s-2.11-1.63-2.81-2.8c-0.7-1.17-1.05-2.46-1.05-3.88v-14.69
				c0-0.45,0.16-0.84,0.48-1.16c0.32-0.32,0.71-0.48,1.16-0.48s0.84,0.16,1.16,0.48c0.32,0.32,0.48,0.71,0.48,1.16v14.69
				c0,0.81,0.2,1.56,0.61,2.23c0.4,0.67,0.95,1.21,1.62,1.61c0.68,0.4,1.43,0.6,2.26,0.6c0.83,0,1.58-0.2,2.26-0.6
				c0.68-0.4,1.22-0.94,1.63-1.61c0.41-0.67,0.61-1.42,0.61-2.23v-14.69c0-0.45,0.16-0.84,0.48-1.16s0.71-0.48,1.16-0.48
				c0.45,0,0.84,0.16,1.16,0.48c0.32,0.32,0.48,0.71,0.48,1.16v14.69c0,1.42-0.35,2.71-1.05,3.88s-1.64,2.1-2.82,2.8
				C295.9-41.99,294.6-41.64,293.17-41.64z"/>
			<path class="st22" d="M311.51-42.14c-0.45,0-0.84-0.16-1.15-0.48s-0.48-0.71-0.48-1.16v-18.64h-6.06c-0.45,0-0.84-0.16-1.16-0.48
				c-0.32-0.32-0.48-0.71-0.48-1.16s0.16-0.84,0.48-1.16c0.32-0.32,0.71-0.48,1.16-0.48h15.39c0.45,0,0.84,0.16,1.16,0.48
				c0.32,0.32,0.48,0.71,0.48,1.16s-0.16,0.84-0.48,1.16c-0.32,0.32-0.71,0.48-1.16,0.48h-6.06v18.64c0,0.45-0.16,0.84-0.48,1.16
				C312.36-42.3,311.97-42.14,311.51-42.14z"/>
			<path class="st22" d="M316.25-42.14c-0.45,0-0.84-0.16-1.16-0.48c-0.32-0.32-0.48-0.71-0.48-1.16v-20.28
				c0-0.45,0.16-0.84,0.48-1.16c0.32-0.32,0.71-0.48,1.16-0.48s0.84,0.16,1.16,0.48c0.32,0.32,0.48,0.71,0.48,1.16v20.28
				c0,0.45-0.16,0.84-0.48,1.16C317.09-42.3,316.7-42.14,316.25-42.14z"/>
			<path class="st22" d="M326.76-41.64c-1.44,0-2.74-0.35-3.92-1.05s-2.11-1.63-2.81-2.8s-1.05-2.46-1.05-3.88v-9.25
				c0-1.42,0.35-2.72,1.05-3.89s1.64-2.1,2.81-2.79s2.48-1.04,3.92-1.04c1.43,0,2.73,0.35,3.91,1.04s2.11,1.62,2.81,2.79
				s1.05,2.46,1.05,3.89v9.25c0,1.42-0.35,2.71-1.05,3.88s-1.64,2.1-2.81,2.8S328.19-41.64,326.76-41.64z M326.76-44.93
				c0.82,0,1.57-0.2,2.26-0.6c0.68-0.4,1.23-0.94,1.63-1.61c0.4-0.67,0.61-1.42,0.61-2.23v-9.25c0-0.81-0.2-1.56-0.61-2.23
				c-0.4-0.67-0.95-1.21-1.63-1.61c-0.69-0.4-1.44-0.6-2.26-0.6c-0.83,0-1.58,0.2-2.26,0.6c-0.68,0.4-1.22,0.94-1.63,1.61
				c-0.41,0.67-0.61,1.42-0.61,2.23v9.25c0,0.81,0.2,1.56,0.61,2.23c0.41,0.67,0.95,1.21,1.63,1.61
				C325.18-45.13,325.93-44.93,326.76-44.93z"/>
			<path class="st22" d="M349.4-42.14c-0.28,0-0.55-0.07-0.79-0.21c-0.25-0.14-0.45-0.34-0.61-0.59l-9.17-15.22v14.38
				c0,0.45-0.16,0.84-0.48,1.16c-0.32,0.32-0.71,0.48-1.16,0.48s-0.84-0.16-1.16-0.48c-0.32-0.32-0.48-0.71-0.48-1.16v-20.28
				c0-0.37,0.11-0.7,0.34-0.99c0.32-0.42,0.76-0.64,1.32-0.64c0.57,0,1.03,0.26,1.38,0.79l9.17,15.22v-14.38
				c0-0.45,0.16-0.84,0.48-1.16c0.32-0.32,0.71-0.48,1.16-0.48s0.84,0.16,1.16,0.48c0.32,0.32,0.48,0.71,0.48,1.16v20.28
				c0,0.37-0.11,0.7-0.33,0.98c-0.22,0.29-0.51,0.49-0.87,0.59C349.7-42.16,349.55-42.14,349.4-42.14z"/>
		</g>
	</g>
</g>
<g>
	<path class="st0" d="M132.74,28.08l-13.38,22.98c-0.33,0.57,0.08,1.28,0.74,1.28h26.75c0.66,0,1.07-0.71,0.74-1.28l-13.38-22.98
		C133.88,27.52,133.07,27.52,132.74,28.08z"/>
	<path class="st1" d="M149.72,51.98l13.49-23.17c0.31-0.53-0.07-1.18-0.68-1.18h-26.97c-0.61,0-0.99,0.66-0.68,1.18l13.49,23.17
		C148.66,52.5,149.41,52.5,149.72,51.98z"/>
	<path class="st2" d="M101.7,27.95L88.11,51.3c-0.29,0.49,0.07,1.11,0.64,1.11h27.18c0.57,0,0.92-0.62,0.64-1.11l-13.59-23.35
		C102.69,27.46,101.98,27.46,101.7,27.95z"/>
	<path class="st3" d="M118.61,51.98l13.49-23.17c0.31-0.53-0.07-1.18-0.68-1.18h-26.97c-0.61,0-0.99,0.66-0.68,1.18l13.49,23.17
		C117.55,52.5,118.3,52.5,118.61,51.98z"/>
	<path class="st4" d="M119.32,106.46l-13.33,22.91c-0.34,0.58,0.08,1.32,0.76,1.32h26.67c0.68,0,1.1-0.73,0.76-1.32l-13.33-22.91
		C120.5,105.88,119.66,105.88,119.32,106.46z"/>
	<path class="st5" d="M136.85,130.35l13.51-23.21c0.3-0.52-0.07-1.17-0.67-1.17h-27.01c-0.6,0-0.97,0.65-0.67,1.17l13.51,23.21
		C135.81,130.87,136.55,130.87,136.85,130.35z"/>
	<path class="st6" d="M87.58,106.45l-13.35,22.94c-0.34,0.58,0.08,1.32,0.76,1.32h26.7c0.68,0,1.1-0.73,0.76-1.32L89.1,106.45
		C88.76,105.87,87.92,105.87,87.58,106.45z"/>
	<path class="st7" d="M151.27,106.33l-13.56,23.3c-0.29,0.5,0.07,1.14,0.65,1.14h27.12c0.58,0,0.95-0.63,0.65-1.14l-13.56-23.3
		C152.29,105.83,151.56,105.83,151.27,106.33z"/>
	<path class="st8" d="M104.85,130.23l13.3-22.85c0.35-0.6-0.08-1.35-0.78-1.35H90.78c-0.69,0-1.12,0.75-0.78,1.35l13.3,22.85
		C103.65,130.83,104.51,130.83,104.85,130.23z"/>
	<path class="st9" d="M70.41,28.01L56.92,51.18c-0.31,0.53,0.07,1.2,0.69,1.2h26.97c0.62,0,1-0.67,0.69-1.2L71.79,28.01
		C71.48,27.48,70.72,27.48,70.41,28.01z"/>
	<path class="st10" d="M7.97,52.24l-3.62,6.22c-1.03,1.76,0.25,3.97,2.29,3.97h7.25c2.04,0,3.31-2.21,2.29-3.97l-3.62-6.22
		C11.52,50.49,8.99,50.49,7.97,52.24z"/>
	<path class="st11" d="M28.55,37.14l-0.72,1.24c-1.03,1.76,0.25,3.97,2.29,3.97h1.44c2.04,0,3.31-2.21,2.29-3.97l-0.72-1.24
		C32.1,35.39,29.57,35.39,28.55,37.14z"/>
	<path class="st12" d="M20.71,78.05l-0.72,1.24c-1.03,1.76,0.25,3.97,2.29,3.97h1.44c2.04,0,3.31-2.21,2.29-3.97l-0.72-1.24
		C24.26,76.29,21.73,76.29,20.71,78.05z"/>
	<path class="st13" d="M49.06,54.43L35.57,77.61c-0.31,0.53,0.07,1.19,0.69,1.19h26.99c0.61,0,0.99-0.66,0.69-1.19L50.43,54.43
		C50.12,53.91,49.36,53.91,49.06,54.43z"/>
	<path class="st14" d="M87.36,51.99l13.49-23.18c0.31-0.53-0.07-1.2-0.69-1.2H73.19c-0.61,0-1,0.67-0.69,1.2l13.49,23.18
		C86.3,52.51,87.06,52.51,87.36,51.99z"/>
	<path class="st15" d="M71.86,78.36l13.39-23.01c0.33-0.57-0.08-1.28-0.74-1.28H57.73c-0.66,0-1.07,0.71-0.74,1.28l13.39,23.01
		C70.71,78.92,71.53,78.92,71.86,78.36z"/>
	<path class="st16" d="M48.19,30.06l5.11-8.78c1.03-1.76-0.25-3.97-2.29-3.97H40.8c-2.04,0-3.31,2.21-2.29,3.97l5.11,8.78
		C44.64,31.81,47.17,31.81,48.19,30.06z"/>
	<path class="st17" d="M37.25,65.17l6.34-10.89c1.03-1.76-0.25-3.97-2.29-3.97H28.63c-2.04,0-3.31,2.21-2.29,3.97l6.34,10.89
		C33.7,66.92,36.23,66.92,37.25,65.17z"/>
	<path class="st18" d="M58.15,103.75l13.47-23.14c0.31-0.54-0.08-1.21-0.7-1.21H43.98c-0.62,0-1.01,0.68-0.7,1.21l13.47,23.14
		C57.06,104.28,57.84,104.28,58.15,103.75z"/>
	<path class="st19" d="M73.36,130.32l13.45-23.11c0.32-0.55-0.08-1.23-0.71-1.23H59.2c-0.63,0-1.03,0.68-0.71,1.23l13.45,23.11
		C72.26,130.87,73.04,130.87,73.36,130.32z"/>
	<path class="st20" d="M71.96,80.74l-13.49,23.17c-0.31,0.53,0.07,1.2,0.69,1.2h26.97c0.61,0,1-0.67,0.69-1.2L73.34,80.74
		C73.03,80.21,72.27,80.21,71.96,80.74z"/>
	<g>
		<path class="st23" d="M137.83,96.73c0.27,0.47,0.33,0.95,0.2,1.45c-0.13,0.5-0.43,0.88-0.9,1.15c-0.28,0.17-0.6,0.25-0.95,0.25
			c-0.77,0-1.33-0.32-1.68-0.95l-8.79-15.27H99.93v14.32c0,0.52-0.19,0.96-0.56,1.34c-0.38,0.38-0.83,0.56-1.36,0.56
			c-0.53,0-0.99-0.18-1.35-0.55c-0.37-0.37-0.55-0.82-0.55-1.35V65.52c0-0.02,0-0.03,0.01-0.05c0.01-0.02,0.01-0.03,0.01-0.05
			c0-0.02,0-0.03-0.01-0.05c-0.01-0.02-0.01-0.03-0.01-0.05c0-0.75,0.37-1.25,1.1-1.5c0.12-0.05,0.33-0.08,0.64-0.1
			c0.31-0.02,0.5-0.02,0.59,0h28.84c2.7,0,5.01,0.95,6.91,2.85c1.9,1.9,2.85,4.21,2.85,6.91c0,2.22-0.67,4.21-2.02,5.97
			c-1.34,1.76-3.05,2.93-5.12,3.52L137.83,96.73z M99.93,80.01h26.76c1.8,0,3.34-0.64,4.62-1.92c1.28-1.28,1.92-2.82,1.92-4.62
			c0-1.8-0.64-3.34-1.92-4.62c-1.28-1.28-2.82-1.92-4.62-1.92H99.93V80.01z"/>
		<path class="st23" d="M144.27,66.94c-0.45,0-0.84-0.16-1.15-0.48c-0.32-0.32-0.48-0.7-0.48-1.15c0-0.45,0.16-0.83,0.48-1.15
			c0.32-0.32,0.7-0.48,1.15-0.48h41.26c0.45,0,0.83,0.16,1.15,0.48c0.32,0.32,0.48,0.7,0.48,1.15c0,0.45-0.16,0.83-0.48,1.15
			c-0.32,0.32-0.7,0.48-1.15,0.48H144.27z M185.53,80.01c0.45,0,0.83,0.16,1.15,0.48c0.32,0.32,0.48,0.7,0.48,1.15
			s-0.16,0.83-0.48,1.15c-0.32,0.32-0.7,0.48-1.15,0.48h-41.26c-0.45,0-0.84-0.16-1.15-0.48c-0.32-0.32-0.48-0.7-0.48-1.15
			s0.16-0.83,0.48-1.15c0.32-0.32,0.7-0.48,1.15-0.48H185.53z M185.53,96.33c0.45,0,0.83,0.16,1.15,0.48
			c0.32,0.32,0.48,0.7,0.48,1.15s-0.16,0.83-0.48,1.15c-0.32,0.32-0.7,0.48-1.15,0.48h-41.26c-0.45,0-0.84-0.16-1.15-0.48
			c-0.32-0.32-0.48-0.7-0.48-1.15s0.16-0.83,0.48-1.15c0.32-0.32,0.7-0.48,1.15-0.48H185.53z"/>
		<path class="st23" d="M239.23,96.53c0.3,0.43,0.4,0.91,0.31,1.41c-0.09,0.51-0.35,0.91-0.79,1.21c-0.33,0.23-0.69,0.35-1.08,0.35
			c-0.65,0-1.18-0.28-1.58-0.83l-7.06-10.21h-15.77c-0.52,0-0.96-0.19-1.34-0.56c-0.38-0.38-0.56-0.83-0.56-1.36
			c0-0.52,0.18-0.96,0.55-1.34c0.37-0.38,0.82-0.56,1.35-0.56h13.12l-10.77-15.57l-20.45,29.62c-0.4,0.55-0.93,0.83-1.58,0.83
			c-0.38,0-0.74-0.12-1.08-0.35c-0.43-0.3-0.7-0.71-0.79-1.23c-0.09-0.52,0.01-0.99,0.31-1.43l22.03-31.9
			c0.03-0.03,0.08-0.08,0.14-0.13c0.06-0.05,0.1-0.08,0.11-0.1c0.02-0.02,0.05-0.05,0.1-0.11c0.05-0.06,0.09-0.1,0.13-0.14
			l0.02-0.03c0.08-0.05,0.23-0.11,0.43-0.18c0.03,0,0.08-0.02,0.14-0.05c0.06-0.03,0.1-0.05,0.14-0.05h0.4h0.33
			c0.03,0,0.08,0.02,0.15,0.05c0.07,0.03,0.12,0.06,0.15,0.08c0.02,0,0.08,0.02,0.18,0.05c0.1,0.03,0.18,0.07,0.23,0.1l0.03,0.03
			c0.03,0.02,0.06,0.04,0.09,0.08c0.02,0.03,0.05,0.07,0.09,0.1c0.03,0.03,0.06,0.06,0.08,0.08l0.23,0.23L239.23,96.53z"/>
		<path class="st23" d="M274.3,63.69c0.45,0,0.83,0.16,1.15,0.48c0.32,0.32,0.48,0.7,0.48,1.15c0,0.45-0.16,0.83-0.48,1.15
			c-0.32,0.32-0.7,0.48-1.15,0.48h-18.73v30.74c0,0.53-0.19,0.98-0.56,1.35c-0.38,0.37-0.82,0.55-1.34,0.55
			c-0.52,0-0.96-0.18-1.34-0.55c-0.38-0.37-0.56-0.82-0.56-1.35V66.94h-18.73c-0.45,0-0.84-0.16-1.15-0.48
			c-0.32-0.32-0.48-0.7-0.48-1.15c0-0.45,0.16-0.83,0.48-1.15c0.32-0.32,0.7-0.48,1.15-0.48h20.63H274.3z"/>
		<path class="st23" d="M289.45,96.33c0.45,0,0.83,0.16,1.15,0.48c0.32,0.32,0.48,0.7,0.48,1.15s-0.16,0.83-0.48,1.15
			c-0.32,0.32-0.7,0.48-1.15,0.48h-7.36c-0.45,0-0.84-0.16-1.15-0.48c-0.32-0.32-0.48-0.7-0.48-1.15s0.16-0.83,0.48-1.15
			c0.32-0.32,0.7-0.48,1.15-0.48h1.78V66.94h-1.78c-0.45,0-0.84-0.16-1.15-0.48c-0.32-0.32-0.48-0.7-0.48-1.15
			c0-0.45,0.16-0.83,0.48-1.15c0.32-0.32,0.7-0.48,1.15-0.48h7.36c0.45,0,0.83,0.16,1.15,0.48c0.32,0.32,0.48,0.7,0.48,1.15
			c0,0.45-0.16,0.83-0.48,1.15c-0.32,0.32-0.7,0.48-1.15,0.48h-1.78v29.39H289.45z"/>
		<path class="st23" d="M341.27,63.83c0.52-0.09,0.99,0.01,1.43,0.31c0.43,0.3,0.7,0.71,0.79,1.23c0.09,0.52-0.01,0.99-0.31,1.43
			l-22.03,31.9c-0.02,0.02-0.04,0.03-0.06,0.05c-0.02,0.02-0.04,0.03-0.04,0.05c-0.17,0.22-0.29,0.35-0.38,0.4l-0.15,0.08
			c-0.02,0.02-0.05,0.03-0.09,0.05c-0.04,0.02-0.07,0.03-0.09,0.03c-0.28,0.12-0.53,0.18-0.75,0.18c-0.22,0-0.48-0.06-0.78-0.18
			c-0.02,0-0.05-0.01-0.09-0.03c-0.04-0.02-0.07-0.03-0.09-0.05l-0.15-0.08c-0.08-0.05-0.21-0.18-0.38-0.4
			c0-0.02-0.02-0.03-0.05-0.05c-0.03-0.02-0.05-0.03-0.05-0.05l-22.03-31.9c-0.3-0.43-0.41-0.91-0.31-1.43
			c0.09-0.52,0.35-0.93,0.79-1.23c0.43-0.3,0.91-0.4,1.43-0.31c0.52,0.09,0.93,0.35,1.23,0.79l20.48,29.64l20.45-29.64
			C340.35,64.18,340.75,63.92,341.27,63.83z"/>
		<path class="st23" d="M349.76,66.94c-0.45,0-0.84-0.16-1.15-0.48c-0.32-0.32-0.48-0.7-0.48-1.15c0-0.45,0.16-0.83,0.48-1.15
			c0.32-0.32,0.7-0.48,1.15-0.48h41.26c0.45,0,0.83,0.16,1.15,0.48c0.32,0.32,0.48,0.7,0.48,1.15c0,0.45-0.16,0.83-0.48,1.15
			c-0.32,0.32-0.7,0.48-1.15,0.48H349.76z M391.02,80.01c0.45,0,0.83,0.16,1.15,0.48c0.32,0.32,0.48,0.7,0.48,1.15
			s-0.16,0.83-0.48,1.15c-0.32,0.32-0.7,0.48-1.15,0.48h-41.26c-0.45,0-0.84-0.16-1.15-0.48c-0.32-0.32-0.48-0.7-0.48-1.15
			s0.16-0.83,0.48-1.15c0.32-0.32,0.7-0.48,1.15-0.48H391.02z M391.02,96.33c0.45,0,0.83,0.16,1.15,0.48
			c0.32,0.32,0.48,0.7,0.48,1.15s-0.16,0.83-0.48,1.15c-0.32,0.32-0.7,0.48-1.15,0.48h-41.26c-0.45,0-0.84-0.16-1.15-0.48
			c-0.32-0.32-0.48-0.7-0.48-1.15s0.16-0.83,0.48-1.15c0.32-0.32,0.7-0.48,1.15-0.48H391.02z"/>
	</g>
	<g>
		<g>
			<path class="st23" d="M200.89,132.38c-0.45,0-0.84-0.16-1.15-0.48c-0.32-0.32-0.48-0.71-0.48-1.16V112.1h-6.06
				c-0.45,0-0.84-0.16-1.16-0.48c-0.32-0.32-0.48-0.71-0.48-1.16s0.16-0.84,0.48-1.16c0.32-0.32,0.71-0.48,1.16-0.48h15.39
				c0.45,0,0.84,0.16,1.16,0.48s0.48,0.71,0.48,1.16s-0.16,0.84-0.48,1.16s-0.71,0.48-1.16,0.48h-6.06v18.64
				c0,0.45-0.16,0.84-0.48,1.16C201.74,132.22,201.35,132.38,200.89,132.38z"/>
			<path class="st23" d="M215.96,132.38h-10.33c-0.45,0-0.84-0.16-1.16-0.48c-0.32-0.32-0.48-0.71-0.48-1.16v-20.28
				c0-0.45,0.16-0.84,0.48-1.16c0.32-0.32,0.71-0.48,1.16-0.48h10.33c0.46,0,0.85,0.16,1.16,0.48s0.48,0.71,0.48,1.16
				s-0.16,0.84-0.48,1.16s-0.71,0.48-1.16,0.48h-8.69v8.97h5.25c0.45,0,0.84,0.16,1.16,0.48c0.32,0.32,0.48,0.71,0.48,1.16
				c0,0.45-0.16,0.84-0.48,1.16s-0.71,0.48-1.16,0.48h-5.25v4.75h8.69c0.46,0,0.85,0.16,1.16,0.48c0.32,0.32,0.48,0.71,0.48,1.16
				c0,0.45-0.16,0.84-0.48,1.16S216.41,132.38,215.96,132.38z"/>
			<path class="st23" d="M226.2,132.88c-1.43,0-2.73-0.35-3.91-1.05s-2.11-1.63-2.81-2.8c-0.7-1.17-1.05-2.46-1.05-3.88v-9.25
				c0-1.42,0.35-2.72,1.05-3.89c0.7-1.17,1.64-2.1,2.81-2.79s2.48-1.04,3.91-1.04c1.44,0,2.74,0.35,3.92,1.04s2.11,1.62,2.81,2.79
				s1.05,2.46,1.05,3.89c0,0.45-0.16,0.84-0.48,1.16c-0.32,0.32-0.71,0.48-1.16,0.48s-0.84-0.16-1.16-0.48
				c-0.32-0.32-0.48-0.71-0.48-1.16c0-0.81-0.2-1.56-0.61-2.23c-0.41-0.67-0.95-1.21-1.63-1.61c-0.68-0.4-1.43-0.6-2.26-0.6
				c-0.82,0-1.57,0.2-2.26,0.6c-0.68,0.4-1.23,0.94-1.63,1.61c-0.4,0.67-0.61,1.42-0.61,2.23v9.25c0,0.81,0.2,1.56,0.61,2.23
				c0.4,0.67,0.95,1.21,1.63,1.61c0.68,0.4,1.44,0.6,2.26,0.6c0.83,0,1.58-0.2,2.26-0.6c0.68-0.4,1.22-0.94,1.63-1.61
				c0.41-0.67,0.61-1.42,0.61-2.23c0-0.46,0.16-0.85,0.48-1.16c0.32-0.32,0.71-0.48,1.16-0.48s0.84,0.16,1.16,0.48
				c0.32,0.32,0.48,0.71,0.48,1.16c0,1.42-0.35,2.71-1.05,3.88s-1.64,2.1-2.81,2.8S227.63,132.88,226.2,132.88z"/>
			<path class="st23" d="M247.63,132.38c-0.45,0-0.84-0.16-1.16-0.48c-0.32-0.32-0.48-0.71-0.48-1.16v-6.39h-7.73v6.39
				c0,0.45-0.16,0.84-0.48,1.16s-0.71,0.48-1.16,0.48c-0.45,0-0.84-0.16-1.16-0.48c-0.32-0.32-0.48-0.71-0.48-1.16v-20.28
				c0-0.45,0.16-0.84,0.48-1.16c0.32-0.32,0.71-0.48,1.16-0.48c0.46,0,0.85,0.16,1.16,0.48s0.48,0.71,0.48,1.16v10.61h7.73v-10.61
				c0-0.45,0.16-0.84,0.48-1.16c0.32-0.32,0.71-0.48,1.16-0.48c0.46,0,0.85,0.16,1.16,0.48c0.32,0.32,0.48,0.71,0.48,1.16v20.28
				c0,0.45-0.16,0.84-0.48,1.16C248.48,132.22,248.09,132.38,247.63,132.38z"/>
			<path class="st23" d="M265.3,132.88c-1.43,0-2.73-0.35-3.91-1.05s-2.11-1.63-2.81-2.8s-1.05-2.46-1.05-3.88
				c0-0.46,0.16-0.85,0.48-1.16c0.32-0.32,0.71-0.48,1.16-0.48s0.84,0.16,1.16,0.48c0.32,0.32,0.48,0.71,0.48,1.16
				c0,0.81,0.2,1.56,0.61,2.23c0.41,0.67,0.95,1.21,1.63,1.61c0.68,0.4,1.43,0.6,2.25,0.6c0.83,0,1.58-0.2,2.26-0.6
				c0.68-0.4,1.22-0.94,1.63-1.61c0.41-0.67,0.61-1.42,0.61-2.23c0-0.66-0.2-1.2-0.58-1.62c-0.39-0.41-0.98-0.77-1.79-1.08
				c-0.8-0.31-1.81-0.62-3.04-0.93c-0.76-0.2-1.51-0.41-2.24-0.65c-1.85-0.59-3.13-1.4-3.86-2.45c-0.51-0.74-0.77-1.58-0.77-2.52
				c0-1.42,0.35-2.72,1.05-3.89s1.64-2.1,2.81-2.79s2.48-1.04,3.91-1.04c1.44,0,2.74,0.35,3.92,1.04s2.11,1.62,2.81,2.79
				s1.05,2.46,1.05,3.89c0,0.45-0.16,0.84-0.48,1.16c-0.32,0.32-0.71,0.48-1.16,0.48s-0.84-0.16-1.16-0.48
				c-0.32-0.32-0.48-0.71-0.48-1.16c0-0.81-0.2-1.56-0.61-2.23c-0.41-0.67-0.95-1.21-1.63-1.61c-0.68-0.4-1.43-0.6-2.26-0.6
				c-0.82,0-1.57,0.2-2.25,0.6c-0.68,0.4-1.22,0.94-1.63,1.61c-0.41,0.67-0.61,1.42-0.61,2.23c0,0.55,0.35,0.99,1.05,1.33
				s1.83,0.71,3.39,1.11c0.86,0.22,1.71,0.47,2.56,0.75c3.51,1.15,5.27,3.17,5.27,6.06c0,1.42-0.35,2.71-1.05,3.88
				s-1.64,2.1-2.81,2.8S266.73,132.88,265.3,132.88z"/>
			<path class="st23" d="M281.88,132.88c-1.44,0-2.74-0.35-3.92-1.05s-2.11-1.63-2.81-2.8s-1.05-2.46-1.05-3.88v-9.25
				c0-1.42,0.35-2.72,1.05-3.89s1.64-2.1,2.81-2.79s2.48-1.04,3.92-1.04c1.43,0,2.73,0.35,3.91,1.04s2.11,1.62,2.81,2.79
				s1.05,2.46,1.05,3.89v9.25c0,1.42-0.35,2.71-1.05,3.88s-1.64,2.1-2.81,2.8S283.31,132.88,281.88,132.88z M281.88,129.6
				c0.82,0,1.57-0.2,2.26-0.6c0.68-0.4,1.23-0.94,1.63-1.61c0.4-0.67,0.61-1.42,0.61-2.23v-9.25c0-0.81-0.2-1.56-0.61-2.23
				c-0.4-0.67-0.95-1.21-1.63-1.61c-0.69-0.4-1.44-0.6-2.26-0.6c-0.83,0-1.58,0.2-2.26,0.6c-0.68,0.4-1.22,0.94-1.63,1.61
				c-0.41,0.67-0.61,1.42-0.61,2.23v9.25c0,0.81,0.2,1.56,0.61,2.23c0.41,0.67,0.95,1.21,1.63,1.61
				C280.3,129.4,281.05,129.6,281.88,129.6z"/>
			<path class="st23" d="M302.63,132.38h-10.33c-0.45,0-0.84-0.16-1.16-0.48c-0.32-0.32-0.48-0.71-0.48-1.16v-20.28
				c0-0.45,0.16-0.84,0.48-1.16c0.32-0.32,0.71-0.48,1.16-0.48s0.84,0.16,1.16,0.48c0.32,0.32,0.48,0.71,0.48,1.16v18.64h8.69
				c0.45,0,0.84,0.16,1.16,0.48c0.32,0.32,0.48,0.71,0.48,1.16c0,0.45-0.16,0.84-0.48,1.16
				C303.47,132.22,303.08,132.38,302.63,132.38z"/>
			<path class="st23" d="M312.75,132.88c-1.43,0-2.73-0.35-3.91-1.05s-2.11-1.63-2.81-2.8s-1.05-2.46-1.05-3.88v-14.69
				c0-0.45,0.16-0.84,0.48-1.16c0.32-0.32,0.71-0.48,1.16-0.48s0.84,0.16,1.16,0.48c0.32,0.32,0.48,0.71,0.48,1.16v14.69
				c0,0.81,0.2,1.56,0.61,2.23c0.4,0.67,0.94,1.21,1.62,1.61c0.68,0.4,1.43,0.6,2.26,0.6c0.83,0,1.58-0.2,2.26-0.6
				c0.68-0.4,1.22-0.94,1.63-1.61c0.4-0.67,0.61-1.42,0.61-2.23v-14.69c0-0.45,0.16-0.84,0.48-1.16c0.32-0.32,0.71-0.48,1.16-0.48
				c0.45,0,0.84,0.16,1.16,0.48c0.32,0.32,0.48,0.71,0.48,1.16v14.69c0,1.42-0.35,2.71-1.05,3.88c-0.7,1.17-1.64,2.1-2.82,2.8
				C315.48,132.53,314.18,132.88,312.75,132.88z"/>
			<path class="st23" d="M331.09,132.38c-0.45,0-0.84-0.16-1.15-0.48c-0.32-0.32-0.48-0.71-0.48-1.16V112.1h-6.06
				c-0.45,0-0.84-0.16-1.16-0.48c-0.32-0.32-0.48-0.71-0.48-1.16s0.16-0.84,0.48-1.16c0.32-0.32,0.71-0.48,1.16-0.48h15.39
				c0.45,0,0.84,0.16,1.16,0.48c0.32,0.32,0.48,0.71,0.48,1.16s-0.16,0.84-0.48,1.16c-0.32,0.32-0.71,0.48-1.16,0.48h-6.06v18.64
				c0,0.45-0.16,0.84-0.48,1.16S331.55,132.38,331.09,132.38z"/>
			<path class="st23" d="M335.83,132.38c-0.45,0-0.84-0.16-1.16-0.48c-0.32-0.32-0.48-0.71-0.48-1.16v-20.28
				c0-0.45,0.16-0.84,0.48-1.16c0.32-0.32,0.71-0.48,1.16-0.48s0.84,0.16,1.16,0.48c0.32,0.32,0.48,0.71,0.48,1.16v20.28
				c0,0.45-0.16,0.84-0.48,1.16C336.67,132.22,336.28,132.38,335.83,132.38z"/>
			<path class="st23" d="M346.34,132.88c-1.44,0-2.74-0.35-3.92-1.05s-2.11-1.63-2.81-2.8c-0.7-1.17-1.05-2.46-1.05-3.88v-9.25
				c0-1.42,0.35-2.72,1.05-3.89c0.7-1.17,1.64-2.1,2.81-2.79s2.48-1.04,3.92-1.04c1.43,0,2.73,0.35,3.91,1.04s2.12,1.62,2.81,2.79
				c0.7,1.17,1.05,2.46,1.05,3.89v9.25c0,1.42-0.35,2.71-1.05,3.88c-0.7,1.17-1.64,2.1-2.81,2.8S347.77,132.88,346.34,132.88z
				 M346.34,129.6c0.82,0,1.57-0.2,2.26-0.6c0.68-0.4,1.23-0.94,1.63-1.61c0.4-0.67,0.6-1.42,0.6-2.23v-9.25
				c0-0.81-0.2-1.56-0.6-2.23c-0.4-0.67-0.95-1.21-1.63-1.61c-0.68-0.4-1.44-0.6-2.26-0.6c-0.83,0-1.58,0.2-2.26,0.6
				c-0.68,0.4-1.22,0.94-1.63,1.61c-0.41,0.67-0.61,1.42-0.61,2.23v9.25c0,0.81,0.2,1.56,0.61,2.23c0.41,0.67,0.95,1.21,1.63,1.61
				C344.76,129.4,345.51,129.6,346.34,129.6z"/>
			<path class="st23" d="M368.98,132.38c-0.28,0-0.54-0.07-0.79-0.21c-0.25-0.14-0.45-0.34-0.61-0.59l-9.17-15.22v14.38
				c0,0.45-0.16,0.84-0.48,1.16c-0.32,0.32-0.71,0.48-1.16,0.48s-0.84-0.16-1.16-0.48c-0.32-0.32-0.48-0.71-0.48-1.16v-20.28
				c0-0.37,0.11-0.7,0.34-0.99c0.32-0.42,0.76-0.64,1.32-0.64c0.57,0,1.03,0.26,1.38,0.79l9.17,15.22v-14.38
				c0-0.45,0.16-0.84,0.48-1.16c0.32-0.32,0.71-0.48,1.16-0.48s0.84,0.16,1.16,0.48c0.32,0.32,0.48,0.71,0.48,1.16v20.28
				c0,0.37-0.11,0.7-0.33,0.98s-0.51,0.49-0.87,0.59C369.28,132.36,369.13,132.38,368.98,132.38z"/>
		</g>
	</g>
</g>
</svg>
