<?xml version="1.0" encoding="UTF-8"?>
<svg xmlns="http://www.w3.org/2000/svg" xmlns:xlink="http://www.w3.org/1999/xlink" viewBox="0 0 60 60" width="60px" height="60px">
<g id="surface4281642">
<path style=" stroke:none;fill-rule:nonzero;fill:rgb(100%,100%,100%);fill-opacity:1;" d="M 52.5 21.625 C 52.5 47.25 30 55 30 55 C 30 55 7.5 47.25 7.5 21.625 C 7.5 18.5 7.75 15.875 8 13.75 C 8.375 10.625 10.5 8.125 13.5 7.375 C 17.375 6.25 23.5 5 30 5 C 36.5 5 42.625 6.25 46.625 7.375 C 49.625 8.125 51.75 10.75 52.125 13.75 C 52.25 15.875 52.5 18.625 52.5 21.625 Z M 52.5 21.625 "/>
<path style=" stroke:none;fill-rule:nonzero;fill:rgb(99.607843%,33.725491%,9.803922%);fill-opacity:1;" d="M 30 8.75 C 36.125 8.75 41.875 10 45.625 11 C 47.125 11.375 48.125 12.625 48.375 14.25 C 48.625 16.625 48.75 19.125 48.75 21.625 C 48.75 41.125 34.375 49 30 50.875 C 25.625 48.875 11.25 41 11.25 21.625 C 11.25 19.125 11.375 16.625 11.625 14.25 C 11.75 12.625 12.875 11.375 14.375 11 C 18.125 10 23.875 8.75 30 8.75 M 30 5 C 23.5 5 17.375 6.25 13.375 7.375 C 10.5 8.125 8.25 10.75 8 13.75 C 7.75 15.875 7.5 18.625 7.5 21.625 C 7.5 47.25 30 55 30 55 C 30 55 52.5 47.25 52.5 21.625 C 52.5 18.5 52.25 15.875 52 13.75 C 51.625 10.625 49.5 8.125 46.5 7.375 C 42.625 6.25 36.5 5 30 5 Z M 30 5 "/>
<path style=" stroke:none;fill-rule:nonzero;fill:rgb(99.607843%,33.725491%,9.803922%);fill-opacity:1;" d="M 28.75 35 L 31.25 35 L 31.25 45 L 28.75 45 Z M 28.75 35 "/>
<path style=" stroke:none;fill-rule:nonzero;fill:rgb(99.607843%,33.725491%,9.803922%);fill-opacity:1;" d="M 30 12.5 C 30 12.5 22.5 18.75 22.5 28.75 C 22.5 35.25 26.625 39.375 28.75 41.25 L 30 37.5 L 31.25 41.25 C 33.375 39.375 37.5 35.25 37.5 28.75 C 37.5 18.75 30 12.5 30 12.5 Z M 30 12.5 "/>
<path style=" stroke:none;fill-rule:nonzero;fill:rgb(99.607843%,33.725491%,9.803922%);fill-opacity:1;" d="M 30 12.5 C 30 12.5 22.5 18.75 22.5 28.75 C 22.5 35.25 26.625 39.375 28.75 41.25 L 30 37.5 Z M 30 12.5 "/>
</g>
</svg>
