<?xml version="1.0" encoding="UTF-8"?>
<svg xmlns="http://www.w3.org/2000/svg" xmlns:xlink="http://www.w3.org/1999/xlink" viewBox="0 0 60 60" width="60px" height="60px">
<g id="surface4086689">
<path style=" stroke:none;fill-rule:nonzero;fill:rgb(99.607843%,33.725491%,9.803922%);fill-opacity:1;" d="M 39.9375 11.25 C 39.644531 11.25 39.375 11.484375 39.375 11.8125 L 39.375 22.117188 L 37.039062 20.757812 C 36.890625 20.671875 36.726562 20.628906 36.5625 20.628906 C 36.398438 20.628906 36.234375 20.671875 36.085938 20.757812 L 30.472656 24.03125 C 30.179688 24.199219 30 24.511719 30 24.847656 L 30 31.402344 C 30 31.738281 30.179688 32.050781 30.472656 32.21875 L 36.085938 35.492188 C 36.234375 35.578125 36.398438 35.621094 36.5625 35.621094 C 36.726562 35.621094 36.890625 35.578125 37.039062 35.492188 L 42.652344 32.21875 C 42.945312 32.050781 43.125 31.738281 43.125 31.402344 L 43.125 13.558594 C 43.125 13.222656 42.945312 12.917969 42.660156 12.746094 L 40.21875 11.328125 C 40.125 11.273438 40.03125 11.25 39.9375 11.25 Z M 21.5625 20.628906 C 21.398438 20.628906 21.234375 20.671875 21.085938 20.757812 L 15.472656 24.03125 C 15.179688 24.199219 15 24.511719 15 24.847656 L 15 31.402344 C 15 31.738281 15.179688 32.050781 15.472656 32.21875 L 21.085938 35.492188 C 21.378906 35.664062 21.746094 35.664062 22.039062 35.492188 L 27.652344 32.21875 C 27.945312 32.050781 28.125 31.738281 28.125 31.402344 L 28.125 24.847656 C 28.125 24.511719 27.945312 24.199219 27.652344 24.03125 L 22.039062 20.757812 C 21.890625 20.671875 21.726562 20.628906 21.5625 20.628906 Z M 51.5625 20.628906 C 51.398438 20.628906 51.234375 20.671875 51.085938 20.757812 L 45.472656 24.03125 C 45.179688 24.199219 45 24.511719 45 24.847656 L 45 31.402344 C 45 31.738281 45.179688 32.050781 45.472656 32.21875 L 50.917969 35.511719 C 51.210938 35.691406 51.578125 35.691406 51.875 35.519531 L 54.550781 33.960938 C 54.828125 33.804688 54.832031 33.402344 54.550781 33.238281 L 48.75 29.820312 L 48.75 26.457031 L 51.5625 24.816406 L 54.375 26.457031 L 54.375 28.800781 C 54.375 29.113281 54.636719 29.160156 54.816406 29.054688 C 55.523438 28.640625 57.660156 27.398438 57.660156 27.398438 C 57.945312 27.234375 58.125 26.925781 58.125 26.589844 L 58.125 24.847656 C 58.125 24.511719 57.945312 24.199219 57.652344 24.03125 L 52.039062 20.757812 C 51.890625 20.671875 51.726562 20.628906 51.5625 20.628906 Z M 6.5625 20.632812 C 6.398438 20.632812 6.234375 20.675781 6.085938 20.761719 L 0.472656 24.03125 C 0.179688 24.203125 0 24.511719 0 24.851562 L 0 33.21875 C 0 33.628906 0.441406 33.882812 0.792969 33.675781 L 3.285156 32.226562 C 3.570312 32.058594 3.75 31.75 3.75 31.417969 L 3.75 26.460938 L 6.5625 24.820312 L 9.375 26.460938 L 9.375 31.417969 C 9.375 31.75 9.554688 32.058594 9.839844 32.226562 L 12.332031 33.675781 C 12.683594 33.882812 13.125 33.628906 13.125 33.21875 L 13.125 24.851562 C 13.125 24.511719 12.945312 24.203125 12.652344 24.03125 L 7.039062 20.761719 C 6.890625 20.675781 6.726562 20.632812 6.5625 20.632812 Z M 36.5625 24.816406 L 39.375 26.457031 L 39.375 29.792969 L 36.5625 31.433594 L 33.75 29.792969 L 33.75 26.457031 Z M 51.5625 26.257812 L 49.953125 27.195312 L 49.953125 29.066406 L 51.5625 30 L 53.171875 29.066406 L 53.171875 27.195312 Z M 28.886719 33.746094 C 28.695312 33.746094 28.5 33.792969 28.328125 33.890625 L 23.054688 36.9375 C 22.710938 37.128906 22.5 37.503906 22.5 37.894531 L 22.5 43.980469 C 22.5 44.375 22.71875 44.742188 23.054688 44.941406 L 24.445312 45.734375 C 25.109375 46.0625 25.355469 46.0625 25.65625 46.0625 C 26.652344 46.0625 27.21875 45.46875 27.21875 44.417969 L 27.21875 38.40625 C 27.21875 38.3125 27.144531 38.246094 27.0625 38.246094 L 26.394531 38.246094 C 26.304688 38.246094 26.238281 38.320312 26.238281 38.40625 L 26.238281 44.417969 C 26.238281 44.875 25.757812 45.339844 24.972656 44.949219 L 23.527344 44.117188 C 23.480469 44.089844 23.449219 44.03125 23.449219 43.976562 L 23.449219 37.890625 C 23.449219 37.835938 23.476562 37.773438 23.527344 37.746094 L 28.800781 34.707031 C 28.859375 34.675781 28.921875 34.675781 28.96875 34.707031 L 34.246094 37.746094 C 34.296875 37.773438 34.324219 37.828125 34.324219 37.890625 L 34.324219 43.976562 C 34.324219 44.042969 34.289062 44.097656 34.246094 44.125 L 28.96875 47.175781 C 28.921875 47.203125 28.847656 47.203125 28.800781 47.175781 L 27.453125 46.375 C 27.417969 46.355469 27.363281 46.34375 27.328125 46.363281 C 26.953125 46.582031 26.878906 46.609375 26.53125 46.730469 C 26.441406 46.757812 26.316406 46.8125 26.578125 46.960938 L 28.328125 48 C 28.503906 48.089844 28.695312 48.144531 28.886719 48.144531 C 29.085938 48.144531 29.28125 48.089844 29.4375 47.992188 L 34.710938 44.941406 C 35.054688 44.75 35.265625 44.375 35.265625 43.980469 L 35.265625 37.894531 C 35.265625 37.503906 35.046875 37.136719 34.710938 36.9375 L 29.4375 33.890625 C 29.273438 33.792969 29.078125 33.746094 28.886719 33.746094 Z M 37.113281 36.554688 C 36.574219 36.554688 36.101562 36.992188 36.101562 37.566406 C 36.101562 38.121094 36.554688 38.582031 37.113281 38.582031 C 37.667969 38.582031 38.121094 38.121094 38.121094 37.566406 C 38.121094 36.992188 37.660156 36.546875 37.113281 36.554688 Z M 37.101562 36.714844 C 37.578125 36.714844 37.960938 37.089844 37.960938 37.566406 C 37.960938 38.03125 37.574219 38.414062 37.101562 38.425781 C 36.632812 38.425781 36.253906 38.039062 36.253906 37.566406 C 36.253906 37.089844 36.636719 36.714844 37.101562 36.714844 Z M 36.730469 36.992188 L 36.730469 38.128906 L 36.945312 38.128906 L 36.945312 37.675781 L 37.148438 37.675781 C 37.230469 37.675781 37.25 37.710938 37.269531 37.773438 C 37.269531 37.785156 37.304688 38.078125 37.3125 38.132812 L 37.546875 38.132812 C 37.519531 38.078125 37.503906 37.921875 37.492188 37.828125 C 37.464844 37.683594 37.457031 37.582031 37.300781 37.574219 C 37.382812 37.546875 37.523438 37.5 37.523438 37.292969 C 37.523438 36.988281 37.257812 36.992188 37.121094 36.992188 Z M 36.945312 37.175781 L 37.128906 37.175781 C 37.1875 37.175781 37.292969 37.171875 37.292969 37.328125 C 37.292969 37.390625 37.265625 37.496094 37.117188 37.492188 L 36.945312 37.492188 Z M 30.300781 38.105469 C 28.792969 38.105469 27.902344 38.746094 27.902344 39.804688 C 27.902344 40.960938 28.796875 41.273438 30.238281 41.417969 C 31.964844 41.589844 32.097656 41.839844 32.097656 42.175781 C 32.097656 42.769531 31.621094 43.015625 30.507812 43.015625 C 29.113281 43.015625 28.804688 42.667969 28.703125 41.976562 C 28.695312 41.902344 28.628906 41.847656 28.546875 41.847656 L 27.863281 41.847656 C 27.777344 41.847656 27.707031 41.914062 27.707031 42.003906 C 27.707031 42.890625 28.191406 43.949219 30.5 43.949219 C 32.191406 43.945312 33.148438 43.292969 33.148438 42.140625 C 33.148438 41 32.382812 40.695312 30.757812 40.476562 C 29.117188 40.257812 28.953125 40.148438 28.953125 39.761719 C 28.953125 39.445312 29.085938 39.027344 30.300781 39.027344 C 31.386719 39.027344 31.789062 39.265625 31.957031 39.992188 C 31.972656 40.066406 32.023438 40.109375 32.097656 40.109375 L 32.78125 40.109375 C 32.828125 40.109375 32.867188 40.09375 32.894531 40.066406 C 32.921875 40.03125 32.9375 39.996094 32.929688 39.949219 C 32.820312 38.691406 31.988281 38.105469 30.300781 38.105469 Z M 30.300781 38.105469 "/>
</g>
</svg>
