<?xml version="1.0" encoding="utf-8"?>
<!-- Generator: Adobe Illustrator 25.4.1, SVG Export Plug-In . SVG Version: 6.00 Build 0)  -->
<svg version="1.1" id="Layer_1" xmlns="http://www.w3.org/2000/svg" xmlns:xlink="http://www.w3.org/1999/xlink" x="0px" y="0px"
	 viewBox="0 0 210.69 150.94" style="enable-background:new 0 0 210.69 150.94;" xml:space="preserve">
<style type="text/css">
	.st0{fill:#F29822;}
	.st1{fill:#FAAB39;}
	.st2{fill:#A5CD3A;}
	.st3{fill:#ED7723;}
	.st4{fill:#852C86;}
	.st5{fill:#C42A6D;}
	.st6{fill:#3D3B80;}
	.st7{fill:#EB2C7D;}
	.st8{fill:#5F367A;}
	.st9{fill:#71BE45;}
	.st10{fill:#D82569;}
	.st11{fill:#5D8B97;}
	.st12{fill:#433D66;}
	.st13{fill:#70BCE2;}
	.st14{fill:#94C43E;}
	.st15{fill:#1DA24A;}
	.st16{fill:#B6CE38;}
	.st17{fill:#82BBC3;}
	.st18{fill:#46A0CC;}
	.st19{fill:#4C589E;}
	.st20{fill:#2789AF;}
	.st21{fill:#060808;}
	.st22{fill:#231F20;}
	.st23{fill:#FFFFFF;}
</style>
<g>
	<path class="st0" d="M38.31-146.44l-13.38,22.98c-0.33,0.57,0.08,1.28,0.74,1.28h26.75c0.66,0,1.07-0.71,0.74-1.28l-13.38-22.98
		C39.46-147.01,38.64-147.01,38.31-146.44z"/>
	<path class="st1" d="M55.29-122.54l13.49-23.17c0.31-0.53-0.07-1.18-0.68-1.18H41.13c-0.61,0-0.99,0.66-0.68,1.18l13.49,23.17
		C54.23-122.02,54.99-122.02,55.29-122.54z"/>
	<path class="st2" d="M7.27-146.57l-13.59,23.35c-0.29,0.49,0.07,1.11,0.64,1.11H21.5c0.57,0,0.92-0.62,0.64-1.11L8.55-146.57
		C8.26-147.06,7.55-147.06,7.27-146.57z"/>
	<path class="st3" d="M24.18-122.54l13.49-23.17c0.31-0.53-0.07-1.18-0.68-1.18H10.01c-0.61,0-0.99,0.66-0.68,1.18l13.49,23.17
		C23.12-122.02,23.88-122.02,24.18-122.54z"/>
	<path class="st4" d="M24.89-68.06L11.56-45.15c-0.34,0.58,0.08,1.32,0.76,1.32h26.67c0.68,0,1.1-0.73,0.76-1.32L26.41-68.06
		C26.07-68.64,25.23-68.64,24.89-68.06z"/>
	<path class="st5" d="M42.42-44.17l13.51-23.21c0.3-0.52-0.07-1.17-0.67-1.17H28.25c-0.6,0-0.97,0.65-0.67,1.17l13.51,23.21
		C41.38-43.66,42.12-43.66,42.42-44.17z"/>
	<path class="st6" d="M-6.84-68.07l-13.35,22.94c-0.34,0.58,0.08,1.32,0.76,1.32h26.7c0.68,0,1.1-0.73,0.76-1.32L-5.33-68.07
		C-5.66-68.65-6.5-68.65-6.84-68.07z"/>
	<path class="st7" d="M56.85-68.19l-13.56,23.3c-0.29,0.5,0.07,1.14,0.65,1.14h27.12c0.58,0,0.95-0.63,0.65-1.14l-13.56-23.3
		C57.86-68.69,57.14-68.69,56.85-68.19z"/>
	<path class="st8" d="M10.43-44.29l13.3-22.85c0.35-0.6-0.08-1.35-0.78-1.35H-3.65c-0.69,0-1.12,0.75-0.78,1.35l13.3,22.85
		C9.22-43.7,10.08-43.7,10.43-44.29z"/>
	<path class="st9" d="M-24.02-146.51l-13.48,23.17c-0.31,0.53,0.07,1.2,0.69,1.2h26.97c0.62,0,1-0.67,0.69-1.2l-13.48-23.17
		C-22.94-147.04-23.71-147.04-24.02-146.51z"/>
	<path class="st10" d="M-86.46-122.28l-3.62,6.22c-1.03,1.76,0.25,3.97,2.29,3.97h7.25c2.04,0,3.31-2.21,2.29-3.97l-3.62-6.22
		C-82.9-124.03-85.44-124.03-86.46-122.28z"/>
	<path class="st11" d="M-65.88-137.38l-0.72,1.24c-1.03,1.76,0.25,3.97,2.29,3.97h1.44c2.04,0,3.31-2.21,2.29-3.97l-0.72-1.24
		C-62.33-139.13-64.86-139.13-65.88-137.38z"/>
	<path class="st12" d="M-73.72-96.48l-0.72,1.24c-1.03,1.76,0.25,3.97,2.29,3.97h1.44c2.04,0,3.31-2.21,2.29-3.97l-0.72-1.24
		C-70.17-98.23-72.7-98.23-73.72-96.48z"/>
	<path class="st13" d="M-45.37-120.09l-13.49,23.18c-0.31,0.53,0.07,1.19,0.69,1.19h26.99c0.61,0,0.99-0.66,0.69-1.19L-44-120.09
		C-44.3-120.62-45.06-120.62-45.37-120.09z"/>
	<path class="st14" d="M-7.06-122.53l13.49-23.18c0.31-0.53-0.07-1.2-0.69-1.2h-26.98c-0.61,0-1,0.67-0.69,1.2l13.49,23.18
		C-8.13-122.01-7.37-122.01-7.06-122.53z"/>
	<path class="st15" d="M-22.57-96.17l13.39-23.01c0.33-0.57-0.08-1.28-0.74-1.28H-36.7c-0.66,0-1.07,0.71-0.74,1.28l13.39,23.01
		C-23.71-95.6-22.9-95.6-22.57-96.17z"/>
	<path class="st16" d="M-46.24-144.46l5.11-8.78c1.03-1.76-0.25-3.97-2.29-3.97h-10.22c-2.04,0-3.31,2.21-2.29,3.97l5.11,8.78
		C-49.79-142.71-47.25-142.71-46.24-144.46z"/>
	<path class="st17" d="M-57.17-109.35l6.34-10.89c1.03-1.76-0.25-3.97-2.29-3.97H-65.8c-2.04,0-3.31,2.21-2.29,3.97l6.34,10.89
		C-60.72-107.6-58.19-107.6-57.17-109.35z"/>
	<path class="st18" d="M-36.28-70.78l13.47-23.14c0.31-0.54-0.08-1.21-0.7-1.21h-26.94c-0.62,0-1.01,0.68-0.7,1.21l13.47,23.14
		C-37.36-70.24-36.59-70.24-36.28-70.78z"/>
	<path class="st19" d="M-21.07-44.2l13.45-23.11c0.32-0.55-0.08-1.23-0.71-1.23h-26.9c-0.63,0-1.03,0.68-0.71,1.23l13.45,23.11
		C-22.17-43.65-21.38-43.65-21.07-44.2z"/>
	<path class="st20" d="M-22.47-93.78l-13.49,23.17c-0.31,0.53,0.07,1.2,0.69,1.2h26.97c0.61,0,1-0.67,0.69-1.2l-13.49-23.17
		C-21.4-94.31-22.16-94.31-22.47-93.78z"/>
	<g>
		<path class="st21" d="M43.41-77.79c0.27,0.47,0.33,0.95,0.2,1.45c-0.13,0.5-0.43,0.88-0.9,1.15c-0.28,0.17-0.6,0.25-0.95,0.25
			c-0.77,0-1.33-0.32-1.68-0.95l-8.79-15.27H5.5v14.32c0,0.52-0.19,0.96-0.56,1.34c-0.38,0.38-0.83,0.56-1.36,0.56
			c-0.53,0-0.99-0.18-1.35-0.55c-0.37-0.37-0.55-0.82-0.55-1.35v-32.17c0-0.02,0-0.03,0.01-0.05c0.01-0.02,0.01-0.03,0.01-0.05
			c0-0.02,0-0.03-0.01-0.05c-0.01-0.02-0.01-0.03-0.01-0.05c0-0.75,0.37-1.25,1.1-1.5c0.12-0.05,0.33-0.08,0.64-0.1
			c0.31-0.02,0.5-0.02,0.59,0h28.84c2.7,0,5.01,0.95,6.91,2.85c1.9,1.9,2.85,4.21,2.85,6.91c0,2.22-0.67,4.21-2.02,5.97
			c-1.34,1.76-3.05,2.93-5.12,3.52L43.41-77.79z M5.5-94.51h26.76c1.8,0,3.34-0.64,4.62-1.92c1.28-1.28,1.92-2.82,1.92-4.62
			c0-1.8-0.64-3.34-1.92-4.62c-1.28-1.28-2.82-1.92-4.62-1.92H5.5V-94.51z"/>
		<path class="st21" d="M49.84-107.58c-0.45,0-0.84-0.16-1.15-0.48c-0.32-0.32-0.48-0.7-0.48-1.15s0.16-0.83,0.48-1.15
			c0.32-0.32,0.7-0.48,1.15-0.48H91.1c0.45,0,0.83,0.16,1.15,0.48c0.32,0.32,0.48,0.7,0.48,1.15s-0.16,0.83-0.48,1.15
			c-0.32,0.32-0.7,0.48-1.15,0.48H49.84z M91.1-94.51c0.45,0,0.83,0.16,1.15,0.48c0.32,0.32,0.48,0.7,0.48,1.15
			s-0.16,0.83-0.48,1.15c-0.32,0.32-0.7,0.48-1.15,0.48H49.84c-0.45,0-0.84-0.16-1.15-0.48c-0.32-0.32-0.48-0.7-0.48-1.15
			s0.16-0.83,0.48-1.15c0.32-0.32,0.7-0.48,1.15-0.48H91.1z M91.1-78.19c0.45,0,0.83,0.16,1.15,0.48c0.32,0.32,0.48,0.7,0.48,1.15
			s-0.16,0.83-0.48,1.15c-0.32,0.32-0.7,0.48-1.15,0.48H49.84c-0.45,0-0.84-0.16-1.15-0.48c-0.32-0.32-0.48-0.7-0.48-1.15
			s0.16-0.83,0.48-1.15c0.32-0.32,0.7-0.48,1.15-0.48H91.1z"/>
		<path class="st21" d="M144.8-77.99c0.3,0.43,0.4,0.91,0.31,1.41c-0.09,0.51-0.35,0.91-0.79,1.21c-0.33,0.23-0.69,0.35-1.08,0.35
			c-0.65,0-1.18-0.28-1.58-0.83l-7.06-10.21h-15.77c-0.52,0-0.96-0.19-1.34-0.56s-0.56-0.83-0.56-1.36c0-0.52,0.18-0.96,0.55-1.34
			c0.37-0.38,0.82-0.56,1.35-0.56h13.12l-10.77-15.57l-20.45,29.62c-0.4,0.55-0.93,0.83-1.58,0.83c-0.38,0-0.74-0.12-1.08-0.35
			c-0.43-0.3-0.7-0.71-0.79-1.23c-0.09-0.52,0.01-0.99,0.31-1.43l22.03-31.9c0.03-0.03,0.08-0.08,0.14-0.13
			c0.06-0.05,0.1-0.08,0.11-0.1c0.02-0.02,0.05-0.05,0.1-0.11c0.05-0.06,0.09-0.1,0.13-0.14l0.02-0.03
			c0.08-0.05,0.23-0.11,0.43-0.18c0.03,0,0.08-0.02,0.14-0.05c0.06-0.03,0.1-0.05,0.14-0.05h0.4h0.33c0.03,0,0.08,0.02,0.15,0.05
			c0.07,0.03,0.12,0.06,0.15,0.08c0.02,0,0.08,0.02,0.18,0.05c0.1,0.03,0.18,0.07,0.23,0.1l0.03,0.03c0.03,0.02,0.06,0.04,0.09,0.08
			c0.02,0.03,0.05,0.07,0.09,0.1c0.03,0.03,0.06,0.06,0.08,0.08l0.23,0.23L144.8-77.99z"/>
		<path class="st21" d="M179.88-110.83c0.45,0,0.83,0.16,1.15,0.48c0.32,0.32,0.48,0.7,0.48,1.15s-0.16,0.83-0.48,1.15
			c-0.32,0.32-0.7,0.48-1.15,0.48h-18.73v30.74c0,0.53-0.19,0.98-0.56,1.35c-0.38,0.37-0.82,0.55-1.34,0.55
			c-0.52,0-0.96-0.18-1.34-0.55c-0.38-0.37-0.56-0.82-0.56-1.35v-30.74h-18.73c-0.45,0-0.84-0.16-1.15-0.48
			c-0.32-0.32-0.48-0.7-0.48-1.15s0.16-0.83,0.48-1.15c0.32-0.32,0.7-0.48,1.15-0.48h20.63H179.88z"/>
		<path class="st21" d="M195.02-78.19c0.45,0,0.83,0.16,1.15,0.48c0.32,0.32,0.48,0.7,0.48,1.15s-0.16,0.83-0.48,1.15
			c-0.32,0.32-0.7,0.48-1.15,0.48h-7.36c-0.45,0-0.84-0.16-1.15-0.48c-0.32-0.32-0.48-0.7-0.48-1.15s0.16-0.83,0.48-1.15
			c0.32-0.32,0.7-0.48,1.15-0.48h1.78v-29.39h-1.78c-0.45,0-0.84-0.16-1.15-0.48c-0.32-0.32-0.48-0.7-0.48-1.15s0.16-0.83,0.48-1.15
			c0.32-0.32,0.7-0.48,1.15-0.48h7.36c0.45,0,0.83,0.16,1.15,0.48c0.32,0.32,0.48,0.7,0.48,1.15s-0.16,0.83-0.48,1.15
			c-0.32,0.32-0.7,0.48-1.15,0.48h-1.78v29.39H195.02z"/>
		<path class="st21" d="M246.85-110.7c0.52-0.09,0.99,0.01,1.43,0.31c0.43,0.3,0.7,0.71,0.79,1.23c0.09,0.52-0.01,0.99-0.31,1.43
			l-22.03,31.9c-0.02,0.02-0.04,0.03-0.06,0.05c-0.02,0.02-0.04,0.03-0.04,0.05c-0.17,0.22-0.29,0.35-0.38,0.4l-0.15,0.08
			c-0.02,0.02-0.05,0.03-0.09,0.05c-0.04,0.02-0.07,0.03-0.09,0.03c-0.28,0.12-0.53,0.18-0.75,0.18c-0.22,0-0.48-0.06-0.78-0.18
			c-0.02,0-0.05-0.01-0.09-0.03c-0.04-0.02-0.07-0.03-0.09-0.05l-0.15-0.08c-0.08-0.05-0.21-0.18-0.38-0.4
			c0-0.02-0.02-0.03-0.05-0.05c-0.03-0.02-0.05-0.03-0.05-0.05l-22.03-31.9c-0.3-0.43-0.41-0.91-0.31-1.43
			c0.09-0.52,0.35-0.93,0.79-1.23c0.43-0.3,0.91-0.4,1.43-0.31c0.52,0.09,0.93,0.35,1.23,0.79l20.48,29.64l20.45-29.64
			C245.92-110.34,246.33-110.6,246.85-110.7z"/>
		<path class="st21" d="M255.33-107.58c-0.45,0-0.84-0.16-1.15-0.48c-0.32-0.32-0.48-0.7-0.48-1.15s0.16-0.83,0.48-1.15
			c0.32-0.32,0.7-0.48,1.15-0.48h41.26c0.45,0,0.83,0.16,1.15,0.48c0.32,0.32,0.48,0.7,0.48,1.15s-0.16,0.83-0.48,1.15
			c-0.32,0.32-0.7,0.48-1.15,0.48H255.33z M296.59-94.51c0.45,0,0.83,0.16,1.15,0.48c0.32,0.32,0.48,0.7,0.48,1.15
			s-0.16,0.83-0.48,1.15c-0.32,0.32-0.7,0.48-1.15,0.48h-41.26c-0.45,0-0.84-0.16-1.15-0.48c-0.32-0.32-0.48-0.7-0.48-1.15
			s0.16-0.83,0.48-1.15c0.32-0.32,0.7-0.48,1.15-0.48H296.59z M296.59-78.19c0.45,0,0.83,0.16,1.15,0.48
			c0.32,0.32,0.48,0.7,0.48,1.15s-0.16,0.83-0.48,1.15c-0.32,0.32-0.7,0.48-1.15,0.48h-41.26c-0.45,0-0.84-0.16-1.15-0.48
			c-0.32-0.32-0.48-0.7-0.48-1.15s0.16-0.83,0.48-1.15c0.32-0.32,0.7-0.48,1.15-0.48H296.59z"/>
	</g>
	<g>
		<g>
			<path class="st22" d="M106.47-42.14c-0.45,0-0.84-0.16-1.15-0.48c-0.32-0.32-0.48-0.71-0.48-1.16v-18.64h-6.06
				c-0.45,0-0.84-0.16-1.16-0.48c-0.32-0.32-0.48-0.71-0.48-1.16s0.16-0.84,0.48-1.16c0.32-0.32,0.71-0.48,1.16-0.48h15.39
				c0.45,0,0.84,0.16,1.16,0.48s0.48,0.71,0.48,1.16s-0.16,0.84-0.48,1.16s-0.71,0.48-1.16,0.48h-6.06v18.64
				c0,0.45-0.16,0.84-0.48,1.16C107.31-42.3,106.93-42.14,106.47-42.14z"/>
			<path class="st22" d="M121.53-42.14H111.2c-0.45,0-0.84-0.16-1.16-0.48c-0.32-0.32-0.48-0.71-0.48-1.16v-20.28
				c0-0.45,0.16-0.84,0.48-1.16c0.32-0.32,0.71-0.48,1.16-0.48h10.33c0.46,0,0.85,0.16,1.16,0.48c0.32,0.32,0.48,0.71,0.48,1.16
				s-0.16,0.84-0.48,1.16c-0.32,0.32-0.71,0.48-1.16,0.48h-8.69v8.97h5.25c0.45,0,0.84,0.16,1.16,0.48
				c0.32,0.32,0.48,0.71,0.48,1.16c0,0.45-0.16,0.84-0.48,1.16s-0.71,0.48-1.16,0.48h-5.25v4.75h8.69c0.46,0,0.85,0.16,1.16,0.48
				c0.32,0.32,0.48,0.71,0.48,1.16c0,0.45-0.16,0.84-0.48,1.16C122.38-42.3,121.99-42.14,121.53-42.14z"/>
			<path class="st22" d="M131.77-41.64c-1.43,0-2.73-0.35-3.91-1.05s-2.11-1.63-2.81-2.8c-0.7-1.17-1.05-2.46-1.05-3.88v-9.25
				c0-1.42,0.35-2.72,1.05-3.89c0.7-1.17,1.64-2.1,2.81-2.79s2.48-1.04,3.91-1.04c1.44,0,2.74,0.35,3.92,1.04s2.11,1.62,2.81,2.79
				c0.7,1.17,1.05,2.46,1.05,3.89c0,0.45-0.16,0.84-0.48,1.16s-0.71,0.48-1.16,0.48s-0.84-0.16-1.16-0.48s-0.48-0.71-0.48-1.16
				c0-0.81-0.2-1.56-0.61-2.23c-0.41-0.67-0.95-1.21-1.63-1.61c-0.68-0.4-1.43-0.6-2.26-0.6c-0.82,0-1.57,0.2-2.26,0.6
				c-0.68,0.4-1.23,0.94-1.63,1.61c-0.4,0.67-0.61,1.42-0.61,2.23v9.25c0,0.81,0.2,1.56,0.61,2.23c0.4,0.67,0.95,1.21,1.63,1.61
				c0.68,0.4,1.44,0.6,2.26,0.6c0.83,0,1.58-0.2,2.26-0.6c0.68-0.4,1.22-0.94,1.63-1.61c0.41-0.67,0.61-1.42,0.61-2.23
				c0-0.46,0.16-0.85,0.48-1.16c0.32-0.32,0.71-0.48,1.16-0.48s0.84,0.16,1.16,0.48c0.32,0.32,0.48,0.71,0.48,1.16
				c0,1.42-0.35,2.71-1.05,3.88c-0.7,1.17-1.64,2.1-2.81,2.8S133.21-41.64,131.77-41.64z"/>
			<path class="st22" d="M153.2-42.14c-0.45,0-0.84-0.16-1.16-0.48c-0.32-0.32-0.48-0.71-0.48-1.16v-6.39h-7.73v6.39
				c0,0.45-0.16,0.84-0.48,1.16c-0.32,0.32-0.71,0.48-1.16,0.48c-0.45,0-0.84-0.16-1.16-0.48c-0.32-0.32-0.48-0.71-0.48-1.16v-20.28
				c0-0.45,0.16-0.84,0.48-1.16c0.32-0.32,0.71-0.48,1.16-0.48c0.46,0,0.85,0.16,1.16,0.48c0.32,0.32,0.48,0.71,0.48,1.16v10.61
				h7.73v-10.61c0-0.45,0.16-0.84,0.48-1.16c0.32-0.32,0.71-0.48,1.16-0.48c0.46,0,0.85,0.16,1.16,0.48s0.48,0.71,0.48,1.16v20.28
				c0,0.45-0.16,0.84-0.48,1.16S153.66-42.14,153.2-42.14z"/>
			<path class="st22" d="M170.87-41.64c-1.43,0-2.73-0.35-3.91-1.05s-2.11-1.63-2.81-2.8c-0.7-1.17-1.05-2.46-1.05-3.88
				c0-0.46,0.16-0.85,0.48-1.16c0.32-0.32,0.71-0.48,1.16-0.48s0.84,0.16,1.16,0.48c0.32,0.32,0.48,0.71,0.48,1.16
				c0,0.81,0.2,1.56,0.61,2.23c0.41,0.67,0.95,1.21,1.63,1.61c0.68,0.4,1.43,0.6,2.25,0.6c0.83,0,1.58-0.2,2.26-0.6
				c0.68-0.4,1.22-0.94,1.63-1.61c0.41-0.67,0.61-1.42,0.61-2.23c0-0.66-0.19-1.2-0.58-1.61c-0.39-0.41-0.98-0.77-1.78-1.08
				c-0.8-0.31-1.81-0.62-3.04-0.93c-0.76-0.2-1.51-0.41-2.25-0.65c-1.85-0.59-3.13-1.4-3.86-2.45c-0.51-0.74-0.77-1.58-0.77-2.52
				c0-1.42,0.35-2.72,1.05-3.89c0.7-1.17,1.64-2.1,2.81-2.79s2.48-1.04,3.91-1.04c1.44,0,2.74,0.35,3.92,1.04s2.12,1.62,2.81,2.79
				c0.7,1.17,1.05,2.46,1.05,3.89c0,0.45-0.16,0.84-0.48,1.16c-0.32,0.32-0.71,0.48-1.16,0.48s-0.84-0.16-1.16-0.48
				c-0.32-0.32-0.48-0.71-0.48-1.16c0-0.81-0.2-1.56-0.61-2.23c-0.41-0.67-0.95-1.21-1.63-1.61c-0.68-0.4-1.43-0.6-2.26-0.6
				c-0.82,0-1.57,0.2-2.25,0.6c-0.68,0.4-1.22,0.94-1.63,1.61c-0.41,0.67-0.61,1.42-0.61,2.23c0,0.55,0.35,0.99,1.05,1.33
				c0.7,0.34,1.83,0.71,3.39,1.11c0.86,0.22,1.72,0.47,2.56,0.75c3.51,1.15,5.27,3.17,5.27,6.06c0,1.42-0.35,2.71-1.05,3.88
				c-0.7,1.17-1.64,2.1-2.81,2.8S172.31-41.64,170.87-41.64z"/>
			<path class="st22" d="M187.45-41.64c-1.44,0-2.74-0.35-3.92-1.05s-2.11-1.63-2.81-2.8c-0.7-1.17-1.05-2.46-1.05-3.88v-9.25
				c0-1.42,0.35-2.72,1.05-3.89c0.7-1.17,1.64-2.1,2.81-2.79s2.48-1.04,3.92-1.04c1.43,0,2.73,0.35,3.91,1.04s2.12,1.62,2.81,2.79
				c0.7,1.17,1.05,2.46,1.05,3.89v9.25c0,1.42-0.35,2.71-1.05,3.88c-0.7,1.17-1.64,2.1-2.81,2.8S188.88-41.64,187.45-41.64z
				 M187.45-44.93c0.82,0,1.57-0.2,2.26-0.6c0.68-0.4,1.23-0.94,1.63-1.61c0.4-0.67,0.6-1.42,0.6-2.23v-9.25
				c0-0.81-0.2-1.56-0.6-2.23c-0.4-0.67-0.95-1.21-1.63-1.61c-0.68-0.4-1.44-0.6-2.26-0.6c-0.83,0-1.58,0.2-2.26,0.6
				c-0.68,0.4-1.22,0.94-1.63,1.61c-0.41,0.67-0.61,1.42-0.61,2.23v9.25c0,0.81,0.2,1.56,0.61,2.23c0.41,0.67,0.95,1.21,1.63,1.61
				C185.87-45.13,186.62-44.93,187.45-44.93z"/>
			<path class="st22" d="M208.2-42.14h-10.33c-0.45,0-0.84-0.16-1.16-0.48c-0.32-0.32-0.48-0.71-0.48-1.16v-20.28
				c0-0.45,0.16-0.84,0.48-1.16c0.32-0.32,0.71-0.48,1.16-0.48s0.84,0.16,1.16,0.48c0.32,0.32,0.48,0.71,0.48,1.16v18.64h8.69
				c0.45,0,0.84,0.16,1.16,0.48c0.32,0.32,0.48,0.71,0.48,1.16c0,0.45-0.16,0.84-0.48,1.16C209.04-42.3,208.66-42.14,208.2-42.14z"
				/>
			<path class="st22" d="M218.33-41.64c-1.43,0-2.73-0.35-3.91-1.05s-2.11-1.63-2.81-2.8c-0.7-1.17-1.05-2.46-1.05-3.88v-14.69
				c0-0.45,0.16-0.84,0.48-1.16c0.32-0.32,0.71-0.48,1.16-0.48s0.84,0.16,1.16,0.48c0.32,0.32,0.48,0.71,0.48,1.16v14.69
				c0,0.81,0.2,1.56,0.61,2.23c0.4,0.67,0.95,1.21,1.62,1.61c0.68,0.4,1.43,0.6,2.26,0.6c0.83,0,1.58-0.2,2.26-0.6
				c0.68-0.4,1.22-0.94,1.63-1.61c0.41-0.67,0.61-1.42,0.61-2.23v-14.69c0-0.45,0.16-0.84,0.48-1.16s0.71-0.48,1.16-0.48
				c0.45,0,0.84,0.16,1.16,0.48c0.32,0.32,0.48,0.71,0.48,1.16v14.69c0,1.42-0.35,2.71-1.05,3.88s-1.64,2.1-2.82,2.8
				C221.06-41.99,219.75-41.64,218.33-41.64z"/>
			<path class="st22" d="M236.67-42.14c-0.45,0-0.84-0.16-1.15-0.48s-0.48-0.71-0.48-1.16v-18.64h-6.06c-0.45,0-0.84-0.16-1.16-0.48
				c-0.32-0.32-0.48-0.71-0.48-1.16s0.16-0.84,0.48-1.16c0.32-0.32,0.71-0.48,1.16-0.48h15.39c0.45,0,0.84,0.16,1.16,0.48
				c0.32,0.32,0.48,0.71,0.48,1.16s-0.16,0.84-0.48,1.16c-0.32,0.32-0.71,0.48-1.16,0.48h-6.06v18.64c0,0.45-0.16,0.84-0.48,1.16
				C237.52-42.3,237.13-42.14,236.67-42.14z"/>
			<path class="st22" d="M241.41-42.14c-0.45,0-0.84-0.16-1.16-0.48c-0.32-0.32-0.48-0.71-0.48-1.16v-20.28
				c0-0.45,0.16-0.84,0.48-1.16c0.32-0.32,0.71-0.48,1.16-0.48s0.84,0.16,1.16,0.48c0.32,0.32,0.48,0.71,0.48,1.16v20.28
				c0,0.45-0.16,0.84-0.48,1.16C242.24-42.3,241.86-42.14,241.41-42.14z"/>
			<path class="st22" d="M251.92-41.64c-1.44,0-2.74-0.35-3.92-1.05s-2.11-1.63-2.81-2.8s-1.05-2.46-1.05-3.88v-9.25
				c0-1.42,0.35-2.72,1.05-3.89s1.64-2.1,2.81-2.79s2.48-1.04,3.92-1.04c1.43,0,2.73,0.35,3.91,1.04c1.18,0.69,2.11,1.62,2.81,2.79
				s1.05,2.46,1.05,3.89v9.25c0,1.42-0.35,2.71-1.05,3.88s-1.64,2.1-2.81,2.8C254.65-41.99,253.35-41.64,251.92-41.64z
				 M251.92-44.93c0.82,0,1.57-0.2,2.26-0.6c0.68-0.4,1.23-0.94,1.63-1.61c0.4-0.67,0.61-1.42,0.61-2.23v-9.25
				c0-0.81-0.2-1.56-0.61-2.23c-0.4-0.67-0.95-1.21-1.63-1.61c-0.69-0.4-1.44-0.6-2.26-0.6c-0.83,0-1.58,0.2-2.26,0.6
				c-0.68,0.4-1.22,0.94-1.63,1.61c-0.41,0.67-0.61,1.42-0.61,2.23v9.25c0,0.81,0.2,1.56,0.61,2.23c0.41,0.67,0.95,1.21,1.63,1.61
				C250.34-45.13,251.09-44.93,251.92-44.93z"/>
			<path class="st22" d="M274.56-42.14c-0.28,0-0.55-0.07-0.79-0.21c-0.25-0.14-0.45-0.34-0.61-0.59l-9.17-15.22v14.38
				c0,0.45-0.16,0.84-0.48,1.16c-0.32,0.32-0.71,0.48-1.16,0.48s-0.84-0.16-1.16-0.48c-0.32-0.32-0.48-0.71-0.48-1.16v-20.28
				c0-0.37,0.11-0.7,0.34-0.99c0.32-0.42,0.76-0.64,1.32-0.64c0.57,0,1.03,0.26,1.38,0.79l9.17,15.22v-14.38
				c0-0.45,0.16-0.84,0.48-1.16c0.32-0.32,0.71-0.48,1.16-0.48s0.84,0.16,1.16,0.48c0.32,0.32,0.48,0.71,0.48,1.16v20.28
				c0,0.37-0.11,0.7-0.33,0.98c-0.22,0.29-0.51,0.49-0.87,0.59C274.86-42.16,274.71-42.14,274.56-42.14z"/>
		</g>
	</g>
</g>
<g>
	<path class="st0" d="M151.58,27.17L138.2,50.15c-0.33,0.57,0.08,1.28,0.74,1.28h26.75c0.66,0,1.07-0.71,0.74-1.28l-13.38-22.98
		C152.72,26.61,151.9,26.61,151.58,27.17z"/>
	<path class="st1" d="M168.55,51.07l13.49-23.17c0.31-0.53-0.07-1.18-0.68-1.18h-26.97c-0.61,0-0.99,0.66-0.68,1.18l13.49,23.17
		C167.5,51.6,168.25,51.6,168.55,51.07z"/>
	<path class="st2" d="M120.53,27.05L106.94,50.4c-0.29,0.49,0.07,1.11,0.64,1.11h27.18c0.57,0,0.92-0.62,0.64-1.11l-13.59-23.35
		C121.52,26.56,120.82,26.56,120.53,27.05z"/>
	<path class="st3" d="M137.44,51.07l13.49-23.17c0.31-0.53-0.07-1.18-0.68-1.18h-26.97c-0.61,0-0.99,0.66-0.68,1.18l13.49,23.17
		C136.38,51.6,137.14,51.6,137.44,51.07z"/>
	<path class="st4" d="M138.16,105.56l-13.33,22.91c-0.34,0.58,0.08,1.32,0.76,1.32h26.67c0.68,0,1.1-0.73,0.76-1.32l-13.33-22.91
		C139.33,104.98,138.49,104.98,138.16,105.56z"/>
	<path class="st5" d="M155.68,129.45l13.51-23.21c0.3-0.52-0.07-1.17-0.67-1.17h-27.01c-0.6,0-0.97,0.65-0.67,1.17l13.51,23.21
		C154.64,129.96,155.39,129.96,155.68,129.45z"/>
	<path class="st6" d="M106.42,105.54l-13.35,22.94c-0.34,0.58,0.08,1.32,0.76,1.32h26.7c0.68,0,1.1-0.73,0.76-1.32l-13.35-22.94
		C107.6,104.96,106.76,104.96,106.42,105.54z"/>
	<path class="st7" d="M170.11,105.42l-13.56,23.3c-0.29,0.5,0.07,1.14,0.65,1.14h27.12c0.58,0,0.95-0.63,0.65-1.14l-13.56-23.3
		C171.12,104.92,170.4,104.92,170.11,105.42z"/>
	<path class="st8" d="M123.69,129.33l13.3-22.85c0.35-0.6-0.08-1.35-0.78-1.35h-26.59c-0.69,0-1.12,0.75-0.78,1.35l13.3,22.85
		C122.48,129.92,123.34,129.92,123.69,129.33z"/>
	<path class="st9" d="M89.24,27.11L75.76,50.27c-0.31,0.53,0.07,1.2,0.69,1.2h26.97c0.62,0,1-0.67,0.69-1.2L90.63,27.11
		C90.32,26.58,89.55,26.58,89.24,27.11z"/>
	<path class="st10" d="M26.81,51.33l-3.62,6.22c-1.03,1.76,0.25,3.97,2.29,3.97h7.25c2.04,0,3.31-2.21,2.29-3.97l-3.62-6.22
		C30.36,49.58,27.83,49.58,26.81,51.33z"/>
	<path class="st11" d="M47.38,36.24l-0.72,1.24c-1.03,1.76,0.25,3.97,2.29,3.97h1.44c2.04,0,3.31-2.21,2.29-3.97l-0.72-1.24
		C50.93,34.48,48.4,34.48,47.38,36.24z"/>
	<path class="st12" d="M39.55,77.14l-0.72,1.24c-1.03,1.76,0.25,3.97,2.29,3.97h1.44c2.04,0,3.31-2.21,2.29-3.97l-0.72-1.24
		C43.1,75.39,40.57,75.39,39.55,77.14z"/>
	<path class="st13" d="M67.89,53.53L54.4,76.71c-0.31,0.53,0.07,1.19,0.69,1.19h26.99c0.61,0,0.99-0.66,0.69-1.19L69.27,53.53
		C68.96,53,68.2,53,67.89,53.53z"/>
	<path class="st14" d="M106.2,51.08l13.49-23.18c0.31-0.53-0.07-1.2-0.69-1.2H92.02c-0.61,0-1,0.67-0.69,1.2l13.49,23.18
		C105.13,51.61,105.89,51.61,106.2,51.08z"/>
	<path class="st15" d="M90.69,77.45l13.39-23.01c0.33-0.57-0.08-1.28-0.74-1.28H76.56c-0.66,0-1.07,0.71-0.74,1.28l13.39,23.01
		C89.55,78.02,90.36,78.02,90.69,77.45z"/>
	<path class="st16" d="M67.03,29.15l5.11-8.78c1.03-1.76-0.25-3.97-2.29-3.97H59.63c-2.04,0-3.31,2.21-2.29,3.97l5.11,8.78
		C63.48,30.91,66.01,30.91,67.03,29.15z"/>
	<path class="st17" d="M56.09,64.26l6.34-10.89c1.03-1.76-0.25-3.97-2.29-3.97H47.46c-2.04,0-3.31,2.21-2.29,3.97l6.34,10.89
		C52.54,66.02,55.07,66.02,56.09,64.26z"/>
	<path class="st18" d="M76.99,102.84L90.45,79.7c0.31-0.54-0.08-1.21-0.7-1.21H62.82c-0.62,0-1.01,0.68-0.7,1.21l13.47,23.14
		C75.9,103.38,76.67,103.38,76.99,102.84z"/>
	<path class="st19" d="M92.19,129.42l13.45-23.11c0.32-0.55-0.08-1.23-0.71-1.23h-26.9c-0.63,0-1.03,0.68-0.71,1.23l13.45,23.11
		C91.09,129.96,91.88,129.96,92.19,129.42z"/>
	<path class="st20" d="M90.8,79.83l-13.49,23.17c-0.31,0.53,0.07,1.2,0.69,1.2h26.97c0.61,0,1-0.67,0.69-1.2L92.17,79.83
		C91.87,79.31,91.1,79.31,90.8,79.83z"/>
</g>
<g>
	<path class="st23" d="M286.88,268.32c0.27,0.47,0.33,0.95,0.2,1.45c-0.13,0.5-0.43,0.88-0.9,1.15c-0.28,0.17-0.6,0.25-0.95,0.25
		c-0.77,0-1.33-0.32-1.68-0.95l-8.79-15.27h-25.79v14.32c0,0.52-0.19,0.96-0.56,1.34c-0.38,0.38-0.83,0.56-1.36,0.56
		c-0.53,0-0.99-0.18-1.35-0.55c-0.37-0.37-0.55-0.82-0.55-1.35v-32.17c0-0.02,0-0.03,0.01-0.05c0.01-0.02,0.01-0.03,0.01-0.05
		c0-0.02,0-0.03-0.01-0.05c-0.01-0.02-0.01-0.03-0.01-0.05c0-0.75,0.37-1.25,1.1-1.5c0.12-0.05,0.33-0.08,0.64-0.1
		c0.31-0.02,0.5-0.02,0.59,0h28.84c2.7,0,5.01,0.95,6.91,2.85c1.9,1.9,2.85,4.21,2.85,6.91c0,2.22-0.67,4.21-2.02,5.97
		c-1.34,1.76-3.05,2.93-5.12,3.52L286.88,268.32z M248.98,251.6h26.76c1.8,0,3.34-0.64,4.62-1.92c1.28-1.28,1.92-2.82,1.92-4.62
		c0-1.8-0.64-3.34-1.92-4.62c-1.28-1.28-2.82-1.92-4.62-1.92h-26.76V251.6z"/>
	<path class="st23" d="M293.32,238.53c-0.45,0-0.84-0.16-1.15-0.48c-0.32-0.32-0.48-0.7-0.48-1.15s0.16-0.83,0.48-1.15
		c0.32-0.32,0.7-0.48,1.15-0.48h41.26c0.45,0,0.83,0.16,1.15,0.48c0.32,0.32,0.48,0.7,0.48,1.15s-0.16,0.83-0.48,1.15
		c-0.32,0.32-0.7,0.48-1.15,0.48H293.32z M334.57,251.6c0.45,0,0.83,0.16,1.15,0.48c0.32,0.32,0.48,0.7,0.48,1.15
		s-0.16,0.83-0.48,1.15c-0.32,0.32-0.7,0.48-1.15,0.48h-41.26c-0.45,0-0.84-0.16-1.15-0.48c-0.32-0.32-0.48-0.7-0.48-1.15
		s0.16-0.83,0.48-1.15c0.32-0.32,0.7-0.48,1.15-0.48H334.57z M334.57,267.92c0.45,0,0.83,0.16,1.15,0.48
		c0.32,0.32,0.48,0.7,0.48,1.15s-0.16,0.83-0.48,1.15c-0.32,0.32-0.7,0.48-1.15,0.48h-41.26c-0.45,0-0.84-0.16-1.15-0.48
		c-0.32-0.32-0.48-0.7-0.48-1.15s0.16-0.83,0.48-1.15c0.32-0.32,0.7-0.48,1.15-0.48H334.57z"/>
	<path class="st23" d="M388.27,268.12c0.3,0.43,0.4,0.91,0.31,1.41c-0.09,0.51-0.35,0.91-0.79,1.21c-0.33,0.23-0.69,0.35-1.08,0.35
		c-0.65,0-1.18-0.28-1.58-0.83l-7.06-10.21h-15.77c-0.52,0-0.96-0.19-1.34-0.56c-0.38-0.38-0.56-0.83-0.56-1.36
		c0-0.52,0.18-0.96,0.55-1.34c0.37-0.38,0.82-0.56,1.35-0.56h13.12l-10.77-15.57l-20.45,29.62c-0.4,0.55-0.93,0.83-1.58,0.83
		c-0.38,0-0.74-0.12-1.08-0.35c-0.43-0.3-0.7-0.71-0.79-1.23c-0.09-0.52,0.01-0.99,0.31-1.43l22.03-31.9
		c0.03-0.03,0.08-0.08,0.14-0.13c0.06-0.05,0.1-0.08,0.11-0.1c0.02-0.02,0.05-0.05,0.1-0.11c0.05-0.06,0.09-0.1,0.13-0.14l0.02-0.03
		c0.08-0.05,0.23-0.11,0.43-0.18c0.03,0,0.08-0.02,0.14-0.05c0.06-0.03,0.1-0.05,0.14-0.05h0.4h0.33c0.03,0,0.08,0.02,0.15,0.05
		c0.07,0.03,0.12,0.06,0.15,0.08c0.02,0,0.08,0.02,0.18,0.05c0.1,0.03,0.17,0.07,0.23,0.1l0.03,0.03c0.03,0.02,0.06,0.04,0.09,0.08
		c0.02,0.03,0.05,0.07,0.09,0.1c0.03,0.03,0.06,0.06,0.08,0.08l0.23,0.23L388.27,268.12z"/>
	<path class="st23" d="M423.35,235.28c0.45,0,0.83,0.16,1.15,0.48c0.32,0.32,0.48,0.7,0.48,1.15s-0.16,0.83-0.48,1.15
		c-0.32,0.32-0.7,0.48-1.15,0.48h-18.73v30.74c0,0.53-0.19,0.98-0.56,1.35c-0.38,0.37-0.82,0.55-1.34,0.55
		c-0.52,0-0.96-0.18-1.34-0.55c-0.38-0.37-0.56-0.82-0.56-1.35v-30.74h-18.73c-0.45,0-0.84-0.16-1.15-0.48
		c-0.32-0.32-0.48-0.7-0.48-1.15s0.16-0.83,0.48-1.15c0.32-0.32,0.7-0.48,1.15-0.48h20.63H423.35z"/>
	<path class="st23" d="M438.5,267.92c0.45,0,0.83,0.16,1.15,0.48c0.32,0.32,0.48,0.7,0.48,1.15s-0.16,0.83-0.48,1.15
		c-0.32,0.32-0.7,0.48-1.15,0.48h-7.36c-0.45,0-0.84-0.16-1.15-0.48c-0.32-0.32-0.48-0.7-0.48-1.15s0.16-0.83,0.48-1.15
		c0.32-0.32,0.7-0.48,1.15-0.48h1.78v-29.39h-1.78c-0.45,0-0.84-0.16-1.15-0.48c-0.32-0.32-0.48-0.7-0.48-1.15s0.16-0.83,0.48-1.15
		c0.32-0.32,0.7-0.48,1.15-0.48h7.36c0.45,0,0.83,0.16,1.15,0.48c0.32,0.32,0.48,0.7,0.48,1.15s-0.16,0.83-0.48,1.15
		c-0.32,0.32-0.7,0.48-1.15,0.48h-1.78v29.39H438.5z"/>
	<path class="st23" d="M490.32,235.42c0.52-0.09,0.99,0.01,1.43,0.31c0.43,0.3,0.7,0.71,0.79,1.23c0.09,0.52-0.01,0.99-0.31,1.43
		l-22.03,31.9c-0.02,0.02-0.04,0.03-0.06,0.05c-0.02,0.02-0.04,0.03-0.04,0.05c-0.17,0.22-0.29,0.35-0.38,0.4l-0.15,0.08
		c-0.02,0.02-0.05,0.03-0.09,0.05c-0.04,0.02-0.07,0.03-0.09,0.03c-0.28,0.12-0.53,0.18-0.75,0.18c-0.22,0-0.48-0.06-0.78-0.18
		c-0.02,0-0.05-0.01-0.09-0.03c-0.04-0.02-0.07-0.03-0.09-0.05l-0.15-0.08c-0.08-0.05-0.21-0.18-0.38-0.4
		c0-0.02-0.02-0.03-0.05-0.05c-0.03-0.02-0.05-0.03-0.05-0.05l-22.03-31.9c-0.3-0.43-0.41-0.91-0.31-1.43
		c0.09-0.52,0.35-0.93,0.79-1.23c0.43-0.3,0.91-0.4,1.43-0.31c0.52,0.09,0.93,0.35,1.23,0.79l20.48,29.64l20.45-29.64
		C489.39,235.77,489.8,235.51,490.32,235.42z"/>
	<path class="st23" d="M498.81,238.53c-0.45,0-0.84-0.16-1.15-0.48c-0.32-0.32-0.48-0.7-0.48-1.15s0.16-0.83,0.48-1.15
		c0.32-0.32,0.7-0.48,1.15-0.48h41.26c0.45,0,0.83,0.16,1.15,0.48c0.32,0.32,0.48,0.7,0.48,1.15s-0.16,0.83-0.48,1.15
		c-0.32,0.32-0.7,0.48-1.15,0.48H498.81z M540.06,251.6c0.45,0,0.83,0.16,1.15,0.48c0.32,0.32,0.48,0.7,0.48,1.15
		s-0.16,0.83-0.48,1.15c-0.32,0.32-0.7,0.48-1.15,0.48h-41.26c-0.45,0-0.84-0.16-1.15-0.48c-0.32-0.32-0.48-0.7-0.48-1.15
		s0.16-0.83,0.48-1.15c0.32-0.32,0.7-0.48,1.15-0.48H540.06z M540.06,267.92c0.45,0,0.83,0.16,1.15,0.48
		c0.32,0.32,0.48,0.7,0.48,1.15s-0.16,0.83-0.48,1.15c-0.32,0.32-0.7,0.48-1.15,0.48h-41.26c-0.45,0-0.84-0.16-1.15-0.48
		c-0.32-0.32-0.48-0.7-0.48-1.15s0.16-0.83,0.48-1.15c0.32-0.32,0.7-0.48,1.15-0.48H540.06z"/>
</g>
<g>
	<g>
		<path class="st23" d="M349.94,303.98c-0.45,0-0.84-0.16-1.15-0.48c-0.32-0.32-0.48-0.71-0.48-1.16v-18.64h-6.06
			c-0.45,0-0.84-0.16-1.16-0.48c-0.32-0.32-0.48-0.71-0.48-1.16s0.16-0.84,0.48-1.16c0.32-0.32,0.71-0.48,1.16-0.48h15.39
			c0.45,0,0.84,0.16,1.16,0.48s0.48,0.71,0.48,1.16s-0.16,0.84-0.48,1.16s-0.71,0.48-1.16,0.48h-6.06v18.64
			c0,0.45-0.16,0.84-0.48,1.16C350.79,303.82,350.4,303.98,349.94,303.98z"/>
		<path class="st23" d="M365,303.98h-10.33c-0.45,0-0.84-0.16-1.16-0.48c-0.32-0.32-0.48-0.71-0.48-1.16v-20.28
			c0-0.45,0.16-0.84,0.48-1.16c0.32-0.32,0.71-0.48,1.16-0.48H365c0.46,0,0.85,0.16,1.16,0.48c0.32,0.32,0.48,0.71,0.48,1.16
			s-0.16,0.84-0.48,1.16c-0.32,0.32-0.71,0.48-1.16,0.48h-8.69v8.97h5.25c0.45,0,0.84,0.16,1.16,0.48c0.32,0.32,0.48,0.71,0.48,1.16
			c0,0.45-0.16,0.84-0.48,1.16s-0.71,0.48-1.16,0.48h-5.25v4.75H365c0.46,0,0.85,0.16,1.16,0.48c0.32,0.32,0.48,0.71,0.48,1.16
			c0,0.45-0.16,0.84-0.48,1.16C365.85,303.82,365.46,303.98,365,303.98z"/>
		<path class="st23" d="M375.25,304.47c-1.43,0-2.73-0.35-3.91-1.05s-2.11-1.63-2.81-2.8c-0.7-1.17-1.05-2.46-1.05-3.88v-9.25
			c0-1.42,0.35-2.72,1.05-3.88c0.7-1.17,1.64-2.1,2.81-2.79c1.18-0.69,2.48-1.04,3.91-1.04c1.44,0,2.74,0.35,3.92,1.04
			c1.18,0.69,2.11,1.62,2.81,2.79c0.7,1.17,1.05,2.46,1.05,3.88c0,0.45-0.16,0.84-0.48,1.16s-0.71,0.48-1.16,0.48
			s-0.84-0.16-1.16-0.48s-0.48-0.71-0.48-1.16c0-0.81-0.2-1.56-0.61-2.23c-0.41-0.67-0.95-1.21-1.63-1.61
			c-0.68-0.4-1.43-0.6-2.26-0.6c-0.82,0-1.57,0.2-2.26,0.6c-0.68,0.4-1.23,0.94-1.63,1.61c-0.4,0.67-0.61,1.42-0.61,2.23v9.25
			c0,0.81,0.2,1.56,0.61,2.23c0.4,0.67,0.95,1.21,1.63,1.61c0.68,0.4,1.44,0.6,2.26,0.6c0.83,0,1.58-0.2,2.26-0.6
			c0.68-0.4,1.22-0.94,1.63-1.61c0.41-0.67,0.61-1.42,0.61-2.23c0-0.46,0.16-0.85,0.48-1.16c0.32-0.32,0.71-0.48,1.16-0.48
			s0.84,0.16,1.16,0.48c0.32,0.32,0.48,0.71,0.48,1.16c0,1.41-0.35,2.71-1.05,3.88c-0.7,1.17-1.64,2.1-2.81,2.8
			S376.68,304.47,375.25,304.47z"/>
		<path class="st23" d="M396.68,303.98c-0.45,0-0.84-0.16-1.16-0.48c-0.32-0.32-0.48-0.71-0.48-1.16v-6.39h-7.73v6.39
			c0,0.45-0.16,0.84-0.48,1.16c-0.32,0.32-0.71,0.48-1.16,0.48c-0.45,0-0.84-0.16-1.16-0.48c-0.32-0.32-0.48-0.71-0.48-1.16v-20.28
			c0-0.45,0.16-0.84,0.48-1.16c0.32-0.32,0.71-0.48,1.16-0.48c0.46,0,0.85,0.16,1.16,0.48c0.32,0.32,0.48,0.71,0.48,1.16v10.61h7.73
			v-10.61c0-0.45,0.16-0.84,0.48-1.16s0.71-0.48,1.16-0.48c0.46,0,0.85,0.16,1.16,0.48c0.32,0.32,0.48,0.71,0.48,1.16v20.28
			c0,0.45-0.16,0.84-0.48,1.16C397.52,303.82,397.13,303.98,396.68,303.98z"/>
		<path class="st23" d="M414.34,304.47c-1.43,0-2.73-0.35-3.91-1.05s-2.11-1.63-2.81-2.8c-0.7-1.17-1.05-2.46-1.05-3.88
			c0-0.46,0.16-0.85,0.48-1.16c0.32-0.32,0.71-0.48,1.16-0.48s0.84,0.16,1.16,0.48c0.32,0.32,0.48,0.71,0.48,1.16
			c0,0.81,0.2,1.56,0.61,2.23c0.41,0.67,0.95,1.21,1.63,1.61c0.68,0.4,1.43,0.6,2.25,0.6c0.83,0,1.58-0.2,2.26-0.6
			c0.68-0.4,1.22-0.94,1.63-1.61c0.41-0.67,0.61-1.42,0.61-2.23c0-0.66-0.19-1.2-0.58-1.62s-0.98-0.77-1.78-1.08
			s-1.81-0.62-3.04-0.93c-0.76-0.2-1.51-0.41-2.25-0.65c-1.85-0.59-3.13-1.41-3.86-2.45c-0.51-0.74-0.77-1.58-0.77-2.52
			c0-1.42,0.35-2.72,1.05-3.88c0.7-1.17,1.64-2.1,2.81-2.79c1.18-0.69,2.48-1.04,3.91-1.04c1.44,0,2.74,0.35,3.92,1.04
			c1.18,0.69,2.11,1.62,2.81,2.79c0.7,1.17,1.05,2.46,1.05,3.88c0,0.45-0.16,0.84-0.48,1.16s-0.71,0.48-1.16,0.48
			s-0.84-0.16-1.16-0.48s-0.48-0.71-0.48-1.16c0-0.81-0.2-1.56-0.61-2.23c-0.41-0.67-0.95-1.21-1.63-1.61
			c-0.68-0.4-1.43-0.6-2.26-0.6c-0.82,0-1.57,0.2-2.25,0.6c-0.68,0.4-1.22,0.94-1.63,1.61c-0.41,0.67-0.61,1.42-0.61,2.23
			c0,0.55,0.35,0.99,1.05,1.33c0.7,0.34,1.83,0.71,3.39,1.11c0.86,0.22,1.72,0.47,2.56,0.75c3.51,1.15,5.27,3.17,5.27,6.06
			c0,1.41-0.35,2.71-1.05,3.88c-0.7,1.17-1.64,2.1-2.81,2.8S415.78,304.47,414.34,304.47z"/>
		<path class="st23" d="M430.92,304.47c-1.44,0-2.74-0.35-3.92-1.05s-2.11-1.63-2.81-2.8c-0.7-1.17-1.05-2.46-1.05-3.88v-9.25
			c0-1.42,0.35-2.72,1.05-3.88c0.7-1.17,1.64-2.1,2.81-2.79c1.18-0.69,2.48-1.04,3.92-1.04c1.43,0,2.73,0.35,3.91,1.04
			c1.18,0.69,2.11,1.62,2.81,2.79c0.7,1.17,1.05,2.46,1.05,3.88v9.25c0,1.41-0.35,2.71-1.05,3.88c-0.7,1.17-1.64,2.1-2.81,2.8
			S432.35,304.47,430.92,304.47z M430.92,301.19c0.82,0,1.57-0.2,2.26-0.6c0.68-0.4,1.23-0.94,1.63-1.61s0.6-1.42,0.6-2.23v-9.25
			c0-0.81-0.2-1.56-0.6-2.23c-0.4-0.67-0.95-1.21-1.63-1.61c-0.68-0.4-1.44-0.6-2.26-0.6c-0.83,0-1.58,0.2-2.26,0.6
			c-0.68,0.4-1.22,0.94-1.63,1.61c-0.41,0.67-0.61,1.42-0.61,2.23v9.25c0,0.81,0.2,1.56,0.61,2.23c0.41,0.67,0.95,1.21,1.63,1.61
			C429.34,300.99,430.1,301.19,430.92,301.19z"/>
		<path class="st23" d="M451.68,303.98h-10.33c-0.45,0-0.84-0.16-1.16-0.48c-0.32-0.32-0.48-0.71-0.48-1.16v-20.28
			c0-0.45,0.16-0.84,0.48-1.16c0.32-0.32,0.71-0.48,1.16-0.48s0.84,0.16,1.16,0.48s0.48,0.71,0.48,1.16v18.64h8.69
			c0.45,0,0.84,0.16,1.16,0.48c0.32,0.32,0.48,0.71,0.48,1.16c0,0.45-0.16,0.84-0.48,1.16
			C452.52,303.82,452.13,303.98,451.68,303.98z"/>
		<path class="st23" d="M461.8,304.47c-1.43,0-2.73-0.35-3.91-1.05s-2.11-1.63-2.81-2.8c-0.7-1.17-1.05-2.46-1.05-3.88v-14.69
			c0-0.45,0.16-0.84,0.48-1.16c0.32-0.32,0.71-0.48,1.16-0.48s0.84,0.16,1.16,0.48s0.48,0.71,0.48,1.16v14.69
			c0,0.81,0.2,1.56,0.61,2.23c0.4,0.67,0.94,1.21,1.62,1.61c0.68,0.4,1.43,0.6,2.26,0.6s1.58-0.2,2.26-0.6
			c0.68-0.4,1.22-0.94,1.63-1.61c0.41-0.67,0.61-1.42,0.61-2.23v-14.69c0-0.45,0.16-0.84,0.48-1.16c0.32-0.32,0.71-0.48,1.16-0.48
			c0.45,0,0.84,0.16,1.16,0.48s0.48,0.71,0.48,1.16v14.69c0,1.41-0.35,2.71-1.05,3.88c-0.7,1.17-1.64,2.1-2.82,2.8
			C464.53,304.12,463.23,304.47,461.8,304.47z"/>
		<path class="st23" d="M480.14,303.98c-0.45,0-0.84-0.16-1.15-0.48c-0.32-0.32-0.48-0.71-0.48-1.16v-18.64h-6.06
			c-0.45,0-0.84-0.16-1.16-0.48c-0.32-0.32-0.48-0.71-0.48-1.16s0.16-0.84,0.48-1.16c0.32-0.32,0.71-0.48,1.16-0.48h15.39
			c0.45,0,0.84,0.16,1.16,0.48s0.48,0.71,0.48,1.16s-0.16,0.84-0.48,1.16s-0.71,0.48-1.16,0.48h-6.06v18.64
			c0,0.45-0.16,0.84-0.48,1.16C480.99,303.82,480.6,303.98,480.14,303.98z"/>
		<path class="st23" d="M484.88,303.98c-0.45,0-0.84-0.16-1.16-0.48c-0.32-0.32-0.48-0.71-0.48-1.16v-20.28
			c0-0.45,0.16-0.84,0.48-1.16c0.32-0.32,0.71-0.48,1.16-0.48s0.84,0.16,1.16,0.48s0.48,0.71,0.48,1.16v20.28
			c0,0.45-0.16,0.84-0.48,1.16C485.72,303.82,485.33,303.98,484.88,303.98z"/>
		<path class="st23" d="M495.39,304.47c-1.44,0-2.74-0.35-3.92-1.05s-2.11-1.63-2.81-2.8c-0.7-1.17-1.05-2.46-1.05-3.88v-9.25
			c0-1.42,0.35-2.72,1.05-3.88c0.7-1.17,1.64-2.1,2.81-2.79c1.18-0.69,2.48-1.04,3.92-1.04c1.43,0,2.73,0.35,3.91,1.04
			c1.18,0.69,2.11,1.62,2.81,2.79c0.7,1.17,1.05,2.46,1.05,3.88v9.25c0,1.41-0.35,2.71-1.05,3.88c-0.7,1.17-1.64,2.1-2.81,2.8
			S496.82,304.47,495.39,304.47z M495.39,301.19c0.82,0,1.57-0.2,2.26-0.6c0.68-0.4,1.23-0.94,1.63-1.61s0.6-1.42,0.6-2.23v-9.25
			c0-0.81-0.2-1.56-0.6-2.23c-0.4-0.67-0.95-1.21-1.63-1.61c-0.68-0.4-1.44-0.6-2.26-0.6c-0.83,0-1.58,0.2-2.26,0.6
			c-0.68,0.4-1.22,0.94-1.63,1.61c-0.41,0.67-0.61,1.42-0.61,2.23v9.25c0,0.81,0.2,1.56,0.61,2.23c0.41,0.67,0.95,1.21,1.63,1.61
			C493.81,300.99,494.56,301.19,495.39,301.19z"/>
		<path class="st23" d="M518.03,303.98c-0.28,0-0.55-0.07-0.79-0.21c-0.25-0.14-0.45-0.34-0.61-0.59l-9.17-15.22v14.38
			c0,0.45-0.16,0.84-0.48,1.16c-0.32,0.32-0.71,0.48-1.16,0.48s-0.84-0.16-1.16-0.48c-0.32-0.32-0.48-0.71-0.48-1.16v-20.28
			c0-0.37,0.11-0.7,0.34-1c0.32-0.42,0.76-0.64,1.32-0.64c0.57,0,1.03,0.26,1.38,0.79l9.17,15.22v-14.38c0-0.45,0.16-0.84,0.48-1.16
			s0.71-0.48,1.16-0.48s0.84,0.16,1.16,0.48s0.48,0.71,0.48,1.16v20.28c0,0.37-0.11,0.7-0.33,0.98c-0.22,0.29-0.51,0.49-0.87,0.59
			C518.33,303.95,518.18,303.98,518.03,303.98z"/>
	</g>
</g>
</svg>
