<?xml version="1.0" encoding="UTF-8"?>
<svg xmlns="http://www.w3.org/2000/svg" xmlns:xlink="http://www.w3.org/1999/xlink" viewBox="0 0 60 60" width="60px" height="60px">
<g id="surface4088376">
<path style=" stroke:none;fill-rule:nonzero;fill:rgb(99.607843%,33.725491%,9.803922%);fill-opacity:1;" d="M 30 2.398438 C 25.128906 2.398438 21.824219 3.5625 19.726562 5.25 C 17.625 6.9375 16.800781 9.109375 16.800781 10.914062 L 16.800781 16.800781 L 28.800781 16.800781 L 28.800781 18 L 10.914062 18 C 8.71875 18 6.492188 18.953125 4.914062 20.960938 C 3.332031 22.972656 2.398438 25.972656 2.398438 30 C 2.398438 34.027344 3.332031 37.027344 4.914062 39.039062 C 6.492188 41.046875 8.71875 42 10.914062 42 L 16.800781 42 L 16.800781 49.085938 C 16.800781 50.890625 17.625 53.0625 19.726562 54.75 C 21.824219 56.4375 25.128906 57.601562 30 57.601562 C 34.871094 57.601562 38.175781 56.4375 40.273438 54.75 C 42.375 53.0625 43.199219 50.890625 43.199219 49.085938 L 43.199219 43.199219 L 31.199219 43.199219 L 31.199219 42 L 49.085938 42 C 51.28125 42 53.507812 41.046875 55.085938 39.039062 C 56.667969 37.027344 57.601562 34.027344 57.601562 30 C 57.601562 25.972656 56.667969 22.972656 55.085938 20.960938 C 53.507812 18.953125 51.28125 18 49.085938 18 L 43.199219 18 L 43.199219 10.914062 C 43.199219 9.0625 42.378906 6.886719 40.273438 5.210938 C 38.171875 3.539062 34.867188 2.398438 30 2.398438 Z M 30 4.800781 C 34.496094 4.800781 37.21875 5.851562 38.773438 7.085938 C 40.332031 8.324219 40.800781 9.765625 40.800781 10.914062 L 40.800781 25.199219 C 40.800781 27.1875 39.1875 28.800781 37.199219 28.800781 L 22.800781 28.800781 C 20.328125 28.800781 18.203125 30.324219 17.289062 32.476562 C 17.132812 32.832031 16.992188 33.210938 16.914062 33.601562 C 16.832031 33.988281 16.800781 34.386719 16.800781 34.800781 L 16.800781 39.601562 L 10.914062 39.601562 C 9.390625 39.601562 7.976562 39.003906 6.824219 37.539062 C 5.671875 36.070312 4.800781 33.652344 4.800781 30 C 4.800781 26.347656 5.671875 23.929688 6.824219 22.460938 C 7.976562 20.996094 9.390625 20.398438 10.914062 20.398438 L 31.199219 20.398438 L 31.199219 14.398438 L 19.199219 14.398438 L 19.199219 10.914062 C 19.199219 9.839844 19.664062 8.375 21.226562 7.125 C 22.785156 5.875 25.507812 4.800781 30 4.800781 Z M 24 8.398438 C 22.679688 8.398438 21.601562 9.476562 21.601562 10.800781 C 21.601562 12.121094 22.679688 13.199219 24 13.199219 C 25.320312 13.199219 26.398438 12.121094 26.398438 10.800781 C 26.398438 9.476562 25.320312 8.398438 24 8.398438 Z M 43.199219 20.398438 L 49.085938 20.398438 C 50.609375 20.398438 52.023438 20.996094 53.175781 22.460938 C 54.328125 23.929688 55.199219 26.347656 55.199219 30 C 55.199219 33.652344 54.328125 36.070312 53.175781 37.539062 C 52.023438 39.003906 50.609375 39.601562 49.085938 39.601562 L 28.800781 39.601562 L 28.800781 45.601562 L 40.800781 45.601562 L 40.800781 49.085938 C 40.800781 50.160156 40.335938 51.625 38.773438 52.875 C 37.214844 54.125 34.492188 55.199219 30 55.199219 C 25.507812 55.199219 22.785156 54.125 21.226562 52.875 C 19.664062 51.625 19.199219 50.160156 19.199219 49.085938 L 19.199219 34.800781 C 19.199219 34.550781 19.226562 34.320312 19.273438 34.085938 C 19.613281 32.445312 21.0625 31.199219 22.800781 31.199219 L 37.199219 31.199219 C 40.496094 31.199219 43.199219 28.496094 43.199219 25.199219 Z M 36 46.800781 C 34.679688 46.800781 33.601562 47.878906 33.601562 49.199219 C 33.601562 50.523438 34.679688 51.601562 36 51.601562 C 37.320312 51.601562 38.398438 50.523438 38.398438 49.199219 C 38.398438 47.878906 37.320312 46.800781 36 46.800781 Z M 36 46.800781 "/>
</g>
</svg>
