<?xml version="1.0" encoding="UTF-8"?>
<svg xmlns="http://www.w3.org/2000/svg" xmlns:xlink="http://www.w3.org/1999/xlink" viewBox="0 0 60 60" width="60px" height="60px">
<g id="surface4088535">
<path style=" stroke:none;fill-rule:nonzero;fill:rgb(0.784314%,46.666667%,74.117649%);fill-opacity:1;" d="M 30.058594 6.25 C 28.113281 6.257812 26.765625 6.425781 25.140625 6.707031 C 20.328125 7.546875 19.453125 9.304688 19.453125 12.546875 L 19.453125 17.5 L 30.703125 17.5 L 30.703125 20 L 13.585938 20 C 10.292969 20 7.410156 21.550781 6.496094 25.273438 C 5.460938 29.546875 5.417969 32.21875 6.496094 36.679688 C 7.3125 40.007812 9.117188 42.5 12.414062 42.5 L 16.953125 42.5 L 16.953125 36.121094 C 16.953125 32.414062 20.3125 28.75 24.160156 28.75 L 33.203125 28.75 C 36.359375 28.75 39.453125 26.421875 39.453125 23.277344 L 39.453125 12.546875 C 39.453125 9.496094 37.253906 7.21875 34.179688 6.707031 C 34.257812 6.699219 31.984375 6.242188 30.058594 6.25 Z M 23.828125 11.25 C 24.855469 11.25 25.703125 12.097656 25.703125 13.128906 C 25.703125 14.167969 24.855469 15 23.828125 15 C 22.78125 15 21.953125 14.171875 21.953125 13.128906 C 21.953125 12.101562 22.78125 11.25 23.828125 11.25 Z M 23.828125 11.25 "/>
<path style=" stroke:none;fill-rule:nonzero;fill:rgb(100%,75.686276%,2.745098%);fill-opacity:1;" d="M 28.847656 53.75 C 30.792969 53.742188 32.140625 53.574219 33.765625 53.292969 C 38.578125 52.453125 39.453125 50.695312 39.453125 47.453125 L 39.453125 42.5 L 28.203125 42.5 L 28.203125 40 L 45.320312 40 C 48.613281 40 51.5 38.449219 52.414062 34.726562 C 53.445312 30.453125 53.492188 27.78125 52.414062 23.320312 C 51.59375 19.992188 49.789062 17.5 46.492188 17.5 L 41.953125 17.5 L 41.953125 23.878906 C 41.953125 27.585938 38.59375 31.25 34.746094 31.25 L 25.703125 31.25 C 22.546875 31.25 19.453125 33.578125 19.453125 36.722656 L 19.453125 47.453125 C 19.453125 50.503906 21.652344 52.78125 24.726562 53.292969 C 24.648438 53.300781 26.921875 53.757812 28.847656 53.75 Z M 35.078125 48.75 C 34.050781 48.75 33.203125 47.902344 33.203125 46.871094 C 33.203125 45.832031 34.050781 45 35.078125 45 C 36.125 45 36.953125 45.828125 36.953125 46.871094 C 36.953125 47.898438 36.125 48.75 35.078125 48.75 Z M 35.078125 48.75 "/>
</g>
</svg>
