<?xml version="1.0" encoding="UTF-8"?>
<svg xmlns="http://www.w3.org/2000/svg" xmlns:xlink="http://www.w3.org/1999/xlink" viewBox="0 0 60 60" width="60px" height="60px">
<g id="surface4266841">
<path style=" stroke:none;fill-rule:nonzero;fill:rgb(99.607843%,33.725491%,9.803922%);fill-opacity:1;" d="M 35 30 C 35 32.765625 32.765625 35 30 35 C 27.234375 35 25 32.765625 25 30 C 25 27.234375 27.234375 25 30 25 C 32.765625 25 35 27.234375 35 30 Z M 35 30 "/>
<path style=" stroke:none;fill-rule:nonzero;fill:rgb(100%,99.607843%,99.607843%);fill-opacity:1;" d="M 30 36 C 26.691406 36 24 33.308594 24 30 C 24 26.691406 26.691406 24 30 24 C 33.308594 24 36 26.691406 36 30 C 36 33.308594 33.308594 36 30 36 Z M 30 26 C 27.792969 26 26 27.792969 26 30 C 26 32.207031 27.792969 34 30 34 C 32.207031 34 34 32.207031 34 30 C 34 27.792969 32.207031 26 30 26 Z M 30 26 "/>
<path style=" stroke:none;fill-rule:nonzero;fill:rgb(99.607843%,33.725491%,9.803922%);fill-opacity:1;" d="M 59 30 C 59 25.695312 54.808594 22.015625 48.089844 19.667969 C 49.585938 12.460938 49.84375 6.992188 44.714844 3.957031 C 43.644531 3.324219 42.425781 3.003906 41.089844 3.003906 C 37.796875 3.003906 33.910156 5.007812 30.003906 8.492188 C 26.089844 5.003906 22.203125 2.996094 18.90625 2.996094 C 17.574219 2.996094 16.355469 3.316406 15.285156 3.949219 C 12.035156 5.878906 9.941406 10.183594 11.910156 19.667969 C 5.191406 22.015625 1 25.695312 1 30 C 1 34.304688 5.191406 37.984375 11.910156 40.332031 C 10.351562 47.84375 10.460938 53.1875 15.289062 56.050781 C 16.359375 56.683594 17.578125 57.003906 18.910156 57.003906 C 22.207031 57.003906 26.09375 55 30.003906 51.507812 C 33.910156 54.996094 37.796875 56.996094 41.089844 56.996094 L 41.09375 56.996094 C 42.425781 56.996094 43.644531 56.675781 44.714844 56.042969 C 49.496094 53.210938 49.695312 48.054688 48.09375 40.332031 C 54.808594 37.984375 59 34.304688 59 30 Z M 42.675781 7.398438 C 45.699219 9.191406 45.324219 12.761719 44.207031 18.523438 C 42.203125 18.039062 40.035156 17.667969 37.746094 17.402344 C 36.171875 15.15625 34.535156 13.117188 32.875 11.328125 C 36.113281 8.488281 39.046875 7.003906 41.089844 7.003906 C 41.707031 7.003906 42.222656 7.132812 42.675781 7.398438 Z M 42.398438 34.949219 C 42.714844 35.835938 42.988281 36.695312 43.238281 37.542969 C 42.40625 37.746094 41.539062 37.933594 40.640625 38.101562 C 40.910156 37.644531 41.183594 37.195312 41.445312 36.726562 C 41.773438 36.140625 42.085938 35.542969 42.398438 34.949219 Z M 37.957031 34.765625 C 37.152344 36.195312 36.320312 37.53125 35.484375 38.800781 C 33.730469 38.957031 31.898438 39.046875 30 39.046875 C 28.097656 39.046875 26.261719 38.957031 24.503906 38.800781 C 23.664062 37.535156 22.84375 36.191406 22.039062 34.765625 C 21.132812 33.15625 20.324219 31.5625 19.605469 30 C 20.324219 28.4375 21.132812 26.84375 22.039062 25.234375 C 22.84375 23.808594 23.664062 22.464844 24.503906 21.199219 C 26.265625 21.042969 28.097656 20.953125 30.003906 20.953125 C 31.90625 20.953125 33.738281 21.042969 35.496094 21.199219 C 36.335938 22.464844 37.15625 23.808594 37.960938 25.234375 C 38.867188 26.84375 39.675781 28.4375 40.394531 30 C 39.671875 31.5625 38.863281 33.15625 37.957031 34.765625 Z M 30.003906 45.871094 C 29.1875 44.992188 28.363281 44.027344 27.539062 42.992188 C 28.351562 43.023438 29.164062 43.046875 30 43.046875 C 30.835938 43.046875 31.648438 43.023438 32.460938 42.992188 C 31.636719 44.03125 30.816406 44.992188 30.003906 45.871094 Z M 18.550781 36.726562 C 18.8125 37.191406 19.085938 37.640625 19.355469 38.097656 C 18.457031 37.929688 17.59375 37.742188 16.761719 37.539062 C 17.011719 36.695312 17.285156 35.832031 17.597656 34.945312 C 17.910156 35.546875 18.222656 36.140625 18.550781 36.726562 Z M 17.597656 25.050781 C 17.285156 24.167969 17.011719 23.304688 16.761719 22.457031 C 17.59375 22.257812 18.457031 22.070312 19.359375 21.902344 C 19.089844 22.355469 18.816406 22.804688 18.554688 23.273438 C 18.222656 23.859375 17.910156 24.453125 17.597656 25.050781 Z M 30.003906 14.132812 C 30.816406 15.011719 31.636719 15.972656 32.457031 17.007812 C 31.644531 16.976562 30.832031 16.953125 30 16.953125 C 29.167969 16.953125 28.355469 16.976562 27.542969 17.007812 C 28.363281 15.972656 29.1875 15.011719 30.003906 14.132812 Z M 41.445312 23.273438 C 41.183594 22.804688 40.910156 22.359375 40.640625 21.902344 C 41.539062 22.066406 42.402344 22.253906 43.238281 22.457031 C 42.988281 23.304688 42.714844 24.167969 42.398438 25.054688 C 42.085938 24.457031 41.773438 23.859375 41.445312 23.273438 Z M 17.324219 7.390625 C 17.777344 7.125 18.292969 6.996094 18.90625 6.996094 C 20.953125 6.996094 23.890625 8.484375 27.128906 11.324219 C 25.46875 13.113281 23.828125 15.152344 22.253906 17.402344 C 19.964844 17.667969 17.796875 18.039062 15.792969 18.523438 C 14.230469 10.464844 16.152344 8.089844 17.324219 7.390625 Z M 5 30 C 5 27.742188 8.003906 25.355469 12.921875 23.597656 C 13.550781 25.710938 14.335938 27.859375 15.246094 30 C 14.335938 32.140625 13.554688 34.289062 12.921875 36.402344 C 8.003906 34.644531 5 32.257812 5 30 Z M 17.324219 52.609375 C 14.601562 50.992188 14.617188 47.546875 15.792969 41.476562 C 17.796875 41.960938 19.964844 42.332031 22.253906 42.597656 C 23.828125 44.847656 25.472656 46.890625 27.136719 48.683594 C 22.949219 52.363281 19.261719 53.753906 17.324219 52.609375 Z M 42.675781 52.601562 C 42.222656 52.867188 41.707031 52.996094 41.089844 52.996094 C 39.046875 52.996094 36.109375 51.511719 32.875 48.675781 C 34.535156 46.886719 36.171875 44.847656 37.746094 42.597656 C 40.035156 42.332031 42.203125 41.960938 44.207031 41.476562 C 45.425781 47.761719 45.355469 51.015625 42.675781 52.601562 Z M 47.074219 36.402344 C 46.445312 34.292969 45.660156 32.140625 44.75 30 C 45.664062 27.859375 46.445312 25.707031 47.078125 23.597656 C 51.996094 25.355469 55 27.742188 55 30 C 55 32.257812 51.996094 34.644531 47.074219 36.402344 Z M 47.074219 36.402344 "/>
<path style=" stroke:none;fill-rule:nonzero;fill:rgb(100%,99.607843%,99.607843%);fill-opacity:1;" d="M 18.910156 58.003906 C 17.394531 58.003906 16.007812 57.632812 14.777344 56.90625 C 10.058594 54.109375 9.226562 49.246094 10.765625 40.976562 C 3.910156 38.394531 0 34.425781 0 30 C 0 25.574219 3.910156 21.605469 10.765625 19.019531 C 8.855469 8.753906 11.59375 4.976562 14.777344 3.089844 C 18.664062 0.789062 24.195312 2.222656 30.003906 7.164062 C 35.804688 2.226562 41.324219 0.792969 45.222656 3.09375 C 50.242188 6.066406 50.714844 11.058594 49.234375 19.019531 C 56.089844 21.605469 60 25.578125 60 30 C 60 34.421875 56.089844 38.394531 49.234375 40.980469 C 50.8125 49.464844 49.902344 54.132812 45.222656 56.902344 C 41.324219 59.207031 35.804688 57.773438 30 52.835938 C 26.027344 56.21875 22.207031 58.003906 18.910156 58.003906 Z M 18.90625 3.996094 C 17.757812 3.996094 16.707031 4.273438 15.796875 4.8125 C 12.113281 6.996094 11.507812 12.804688 12.886719 19.464844 L 13.066406 20.320312 L 12.238281 20.613281 C 5.730469 22.882812 2 26.304688 2 30 C 2 33.695312 5.730469 37.117188 12.238281 39.386719 L 13.066406 39.679688 L 12.886719 40.535156 C 11.914062 45.21875 10.539062 52.070312 15.796875 55.191406 C 19.039062 57.109375 24.0625 55.46875 29.335938 50.765625 L 30 50.167969 L 30.664062 50.761719 C 35.9375 55.464844 40.960938 57.097656 44.203125 55.183594 C 49.414062 52.097656 48.128906 45.433594 47.109375 40.535156 L 46.929688 39.679688 L 47.757812 39.386719 C 54.269531 37.117188 58 33.695312 58 30 C 58 26.304688 54.269531 22.882812 47.761719 20.613281 L 46.933594 20.320312 L 47.113281 19.464844 C 48.023438 15.085938 49.769531 8.109375 44.203125 4.816406 C 40.960938 2.898438 35.9375 4.535156 30.667969 9.238281 L 30.003906 9.835938 L 29.335938 9.238281 C 25.546875 5.859375 21.847656 3.996094 18.90625 3.996094 Z M 18.910156 53.996094 C 18.117188 53.996094 17.410156 53.820312 16.816406 53.46875 C 13.675781 51.605469 13.523438 47.941406 14.808594 41.285156 L 15.007812 40.257812 L 16.027344 40.503906 C 17.949219 40.96875 20.078125 41.339844 22.367188 41.601562 L 22.8125 41.652344 L 23.070312 42.023438 C 24.621094 44.230469 26.234375 46.242188 27.867188 48.003906 L 28.566406 48.753906 L 27.796875 49.433594 C 24.445312 52.378906 21.289062 53.996094 18.910156 53.996094 Z M 16.589844 42.6875 C 15.613281 48.65625 15.996094 50.65625 17.835938 51.746094 C 18.117188 51.914062 18.476562 51.996094 18.910156 51.996094 C 20.613281 51.996094 23.050781 50.765625 25.699219 48.59375 C 24.335938 47.058594 22.992188 45.367188 21.691406 43.539062 C 19.886719 43.316406 18.179688 43.03125 16.589844 42.6875 Z M 41.089844 53.996094 C 38.726562 53.996094 35.574219 52.375 32.214844 49.425781 L 31.441406 48.746094 L 32.140625 47.992188 C 33.773438 46.234375 35.382812 44.226562 36.929688 42.023438 L 37.1875 41.65625 L 37.632812 41.605469 C 39.921875 41.339844 42.054688 40.96875 43.972656 40.503906 L 44.992188 40.257812 L 45.191406 41.285156 C 46.523438 48.15625 46.28125 51.628906 43.1875 53.460938 C 42.574219 53.824219 41.890625 53.996094 41.089844 53.996094 Z M 34.308594 48.582031 C 37.652344 51.328125 40.730469 52.59375 42.164062 51.742188 C 43.96875 50.675781 44.421875 48.875 43.40625 42.6875 C 41.816406 43.03125 40.109375 43.316406 38.304688 43.539062 C 37.011719 45.359375 35.671875 47.050781 34.308594 48.582031 Z M 30.003906 47.34375 L 29.269531 46.550781 C 28.453125 45.671875 27.605469 44.683594 26.757812 43.617188 L 25.410156 41.921875 L 27.574219 41.996094 C 29.175781 42.046875 30.828125 42.050781 32.425781 41.996094 L 34.585938 41.921875 L 33.242188 43.617188 C 32.417969 44.660156 31.574219 45.648438 30.734375 46.554688 Z M 30 40.046875 C 28.15625 40.046875 26.277344 39.960938 24.410156 39.796875 L 23.933594 39.753906 L 23.667969 39.351562 C 22.789062 38.019531 21.945312 36.640625 21.164062 35.257812 C 20.277344 33.679688 19.449219 32.050781 18.699219 30.421875 L 18.507812 30 L 18.699219 29.585938 C 19.449219 27.953125 20.277344 26.324219 21.164062 24.746094 C 21.941406 23.367188 22.785156 21.988281 23.667969 20.652344 L 23.933594 20.25 L 24.410156 20.207031 C 28.136719 19.875 31.84375 19.875 35.585938 20.207031 L 36.0625 20.25 L 36.328125 20.652344 C 37.207031 21.980469 38.046875 23.359375 38.828125 24.746094 C 39.71875 26.324219 40.546875 27.953125 41.296875 29.585938 L 41.488281 30 L 41.296875 30.414062 C 40.546875 32.046875 39.71875 33.675781 38.828125 35.253906 C 38.070312 36.597656 37.253906 37.9375 36.320312 39.351562 L 36.054688 39.753906 L 35.574219 39.792969 C 33.71875 39.960938 31.84375 40.046875 30 40.046875 Z M 25.070312 37.84375 C 28.363281 38.113281 31.632812 38.113281 34.914062 37.847656 C 35.710938 36.621094 36.425781 35.449219 37.089844 34.273438 C 37.875 32.878906 38.613281 31.441406 39.289062 30 C 38.613281 28.558594 37.875 27.121094 37.089844 25.726562 C 36.40625 24.519531 35.683594 23.320312 34.925781 22.15625 C 31.621094 21.886719 28.363281 21.886719 25.070312 22.15625 C 24.308594 23.328125 23.585938 24.527344 22.90625 25.726562 C 22.121094 27.121094 21.382812 28.558594 20.707031 30 C 21.382812 31.441406 22.121094 32.878906 22.90625 34.273438 C 23.585938 35.476562 24.3125 36.675781 25.070312 37.84375 Z M 21.328125 39.480469 L 19.171875 39.082031 C 18.257812 38.910156 17.375 38.722656 16.527344 38.515625 L 15.507812 38.265625 L 15.800781 37.257812 C 16.054688 36.394531 16.335938 35.515625 16.652344 34.613281 L 17.417969 32.449219 L 18.484375 34.484375 C 18.789062 35.070312 19.101562 35.660156 19.425781 36.234375 C 19.609375 36.558594 19.796875 36.878906 19.980469 37.195312 Z M 38.652344 39.480469 L 39.9375 37.320312 C 40.148438 36.960938 40.363281 36.601562 40.570312 36.234375 C 40.890625 35.671875 41.191406 35.097656 41.492188 34.519531 L 42.554688 32.492188 L 43.339844 34.613281 C 43.660156 35.515625 43.941406 36.394531 44.195312 37.257812 L 44.492188 38.265625 L 43.472656 38.515625 C 42.621094 38.722656 41.738281 38.910156 40.820312 39.082031 Z M 46.421875 37.703125 L 46.117188 36.691406 C 45.503906 34.632812 44.734375 32.515625 43.828125 30.394531 L 43.660156 30 L 43.828125 29.609375 C 44.726562 27.511719 45.496094 25.390625 46.121094 23.308594 L 46.421875 22.300781 L 47.414062 22.65625 C 52.871094 24.605469 56 27.28125 56 30 C 56 32.714844 52.871094 35.394531 47.410156 37.347656 Z M 45.835938 30 C 46.550781 31.710938 47.183594 33.417969 47.71875 35.09375 C 52.332031 33.269531 54 31.238281 54 30 C 54 28.761719 52.332031 26.730469 47.71875 24.90625 C 47.179688 26.597656 46.546875 28.304688 45.835938 30 Z M 13.578125 37.699219 L 12.585938 37.34375 C 7.128906 35.394531 4 32.71875 4 30 C 4 27.28125 7.128906 24.605469 12.585938 22.65625 L 13.578125 22.300781 L 13.878906 23.308594 C 14.5 25.386719 15.269531 27.503906 16.167969 29.605469 L 16.335938 30 L 16.167969 30.390625 C 15.269531 32.496094 14.5 34.613281 13.878906 36.6875 Z M 12.28125 24.90625 C 7.667969 26.730469 6 28.761719 6 30 C 6 31.238281 7.667969 33.269531 12.28125 35.09375 C 12.816406 33.40625 13.449219 31.699219 14.160156 30 C 13.449219 28.300781 12.816406 26.59375 12.28125 24.90625 Z M 17.417969 27.546875 L 16.652344 25.382812 C 16.335938 24.480469 16.054688 23.605469 15.800781 22.738281 L 15.507812 21.734375 L 16.527344 21.484375 C 17.375 21.277344 18.257812 21.089844 19.175781 20.914062 L 21.339844 20.515625 L 20.03125 22.722656 C 19.824219 23.066406 19.625 23.40625 19.425781 23.761719 C 19.101562 24.335938 18.792969 24.925781 18.484375 25.511719 Z M 42.574219 27.542969 L 41.511719 25.515625 C 41.191406 24.902344 40.890625 24.328125 40.570312 23.765625 C 40.363281 23.394531 40.148438 23.039062 39.9375 22.679688 L 38.652344 20.519531 L 40.820312 20.917969 C 41.738281 21.089844 42.621094 21.277344 43.472656 21.484375 L 44.492188 21.734375 L 44.195312 22.742188 C 43.941406 23.605469 43.660156 24.484375 43.339844 25.386719 Z M 15.007812 19.742188 L 14.808594 18.714844 C 13.136719 10.070312 15.222656 7.476562 16.816406 6.53125 C 19.230469 5.105469 23.285156 6.625 27.785156 10.574219 L 28.558594 11.253906 L 27.859375 12.007812 C 26.230469 13.761719 24.617188 15.773438 23.070312 17.976562 L 22.8125 18.347656 L 22.367188 18.398438 C 20.078125 18.660156 17.945312 19.03125 16.023438 19.496094 Z M 18.90625 7.996094 C 18.472656 7.996094 18.128906 8.078125 17.835938 8.253906 C 17.488281 8.457031 15.28125 9.324219 16.589844 17.3125 C 18.183594 16.96875 19.890625 16.683594 21.695312 16.460938 C 22.988281 14.636719 24.332031 12.949219 25.691406 11.421875 C 23.058594 9.261719 20.566406 7.996094 18.90625 7.996094 Z M 44.988281 19.742188 L 43.972656 19.496094 C 42.050781 19.03125 39.917969 18.660156 37.628906 18.394531 L 37.183594 18.34375 L 36.925781 17.976562 C 35.375 15.765625 33.765625 13.757812 32.140625 12.007812 L 31.4375 11.253906 L 32.210938 10.574219 C 36.714844 6.625 40.769531 5.113281 43.179688 6.535156 C 46.621094 8.574219 46.414062 12.367188 45.1875 18.710938 Z M 38.304688 16.460938 C 40.109375 16.683594 41.816406 16.96875 43.40625 17.3125 C 44.335938 11.660156 44.296875 9.519531 42.164062 8.257812 C 40.730469 7.410156 37.65625 8.671875 34.308594 11.421875 C 35.664062 12.945312 37.007812 14.632812 38.304688 16.460938 Z M 25.410156 18.078125 L 26.761719 16.382812 C 27.617188 15.304688 28.460938 14.320312 29.269531 13.449219 L 30.003906 12.65625 L 30.734375 13.449219 C 31.5625 14.347656 32.40625 15.332031 33.238281 16.382812 L 34.585938 18.074219 L 32.425781 18.003906 C 30.820312 17.949219 29.179688 17.949219 27.574219 18.003906 Z M 25.410156 18.078125 "/>
</g>
</svg>
